<svg xmlns="http://www.w3.org/2000/svg" viewBox="0 0 420 300" width="420" height="300">
  <!-- Background -->
  <rect width="420" height="300" fill="#f8fafc" rx="12"/>

  <!-- Title -->
  <text x="210" y="32" text-anchor="middle" font-family="Arial, sans-serif" font-size="20" font-weight="bold" fill="#1e293b">Prosent = "per hundre"</text>

  <!-- 10x10 Grid representing 100% -->
  <g transform="translate(50, 55)">
    <!-- Grid background -->
    <rect width="200" height="200" fill="#e2e8f0" stroke="#94a3b8" stroke-width="2" rx="4"/>

    <!-- Filled squares (25 of them = 25%) -->
    <!-- Row 1: 10 squares -->
    <rect x="2" y="2" width="18" height="18" fill="#3b82f6" rx="2"/>
    <rect x="22" y="2" width="18" height="18" fill="#3b82f6" rx="2"/>
    <rect x="42" y="2" width="18" height="18" fill="#3b82f6" rx="2"/>
    <rect x="62" y="2" width="18" height="18" fill="#3b82f6" rx="2"/>
    <rect x="82" y="2" width="18" height="18" fill="#3b82f6" rx="2"/>
    <rect x="102" y="2" width="18" height="18" fill="#3b82f6" rx="2"/>
    <rect x="122" y="2" width="18" height="18" fill="#3b82f6" rx="2"/>
    <rect x="142" y="2" width="18" height="18" fill="#3b82f6" rx="2"/>
    <rect x="162" y="2" width="18" height="18" fill="#3b82f6" rx="2"/>
    <rect x="182" y="2" width="18" height="18" fill="#3b82f6" rx="2"/>

    <!-- Row 2: 10 squares -->
    <rect x="2" y="22" width="18" height="18" fill="#3b82f6" rx="2"/>
    <rect x="22" y="22" width="18" height="18" fill="#3b82f6" rx="2"/>
    <rect x="42" y="22" width="18" height="18" fill="#3b82f6" rx="2"/>
    <rect x="62" y="22" width="18" height="18" fill="#3b82f6" rx="2"/>
    <rect x="82" y="22" width="18" height="18" fill="#3b82f6" rx="2"/>
    <rect x="102" y="22" width="18" height="18" fill="#3b82f6" rx="2"/>
    <rect x="122" y="22" width="18" height="18" fill="#3b82f6" rx="2"/>
    <rect x="142" y="22" width="18" height="18" fill="#3b82f6" rx="2"/>
    <rect x="162" y="22" width="18" height="18" fill="#3b82f6" rx="2"/>
    <rect x="182" y="22" width="18" height="18" fill="#3b82f6" rx="2"/>

    <!-- Row 3: 5 squares -->
    <rect x="2" y="42" width="18" height="18" fill="#3b82f6" rx="2"/>
    <rect x="22" y="42" width="18" height="18" fill="#3b82f6" rx="2"/>
    <rect x="42" y="42" width="18" height="18" fill="#3b82f6" rx="2"/>
    <rect x="62" y="42" width="18" height="18" fill="#3b82f6" rx="2"/>
    <rect x="82" y="42" width="18" height="18" fill="#3b82f6" rx="2"/>

    <!-- Grid lines -->
    <g stroke="#94a3b8" stroke-width="0.5">
      <!-- Vertical lines -->
      <line x1="20" y1="0" x2="20" y2="200"/>
      <line x1="40" y1="0" x2="40" y2="200"/>
      <line x1="60" y1="0" x2="60" y2="200"/>
      <line x1="80" y1="0" x2="80" y2="200"/>
      <line x1="100" y1="0" x2="100" y2="200"/>
      <line x1="120" y1="0" x2="120" y2="200"/>
      <line x1="140" y1="0" x2="140" y2="200"/>
      <line x1="160" y1="0" x2="160" y2="200"/>
      <line x1="180" y1="0" x2="180" y2="200"/>
      <!-- Horizontal lines -->
      <line x1="0" y1="20" x2="200" y2="20"/>
      <line x1="0" y1="40" x2="200" y2="40"/>
      <line x1="0" y1="60" x2="200" y2="60"/>
      <line x1="0" y1="80" x2="200" y2="80"/>
      <line x1="0" y1="100" x2="200" y2="100"/>
      <line x1="0" y1="120" x2="200" y2="120"/>
      <line x1="0" y1="140" x2="200" y2="140"/>
      <line x1="0" y1="160" x2="200" y2="160"/>
      <line x1="0" y1="180" x2="200" y2="180"/>
    </g>

    <!-- Label -->
    <text x="100" y="225" text-anchor="middle" font-family="Arial, sans-serif" font-size="14" fill="#64748b">100 ruter totalt</text>
  </g>

  <!-- Info box -->
  <g transform="translate(270, 60)">
    <rect width="130" height="190" fill="#3b82f6" rx="12" opacity="0.1"/>

    <!-- Percent symbol -->
    <text x="65" y="50" text-anchor="middle" font-family="Arial, sans-serif" font-size="48" font-weight="bold" fill="#3b82f6">25%</text>

    <!-- Equals -->
    <text x="65" y="80" text-anchor="middle" font-family="Arial, sans-serif" font-size="18" fill="#64748b">=</text>

    <!-- Fraction -->
    <text x="65" y="110" text-anchor="middle" font-family="Arial, sans-serif" font-size="24" font-weight="bold" fill="#3b82f6">25</text>
    <line x1="40" y1="118" x2="90" y2="118" stroke="#3b82f6" stroke-width="3" stroke-linecap="round"/>
    <text x="65" y="145" text-anchor="middle" font-family="Arial, sans-serif" font-size="24" font-weight="bold" fill="#3b82f6">100</text>

    <!-- Info -->
    <text x="65" y="175" text-anchor="middle" font-family="Arial, sans-serif" font-size="13" fill="#475569">25 av 100</text>
  </g>

  <!-- Legend -->
  <g transform="translate(50, 270)">
    <rect x="0" y="-12" width="18" height="18" fill="#3b82f6" rx="3"/>
    <text x="25" y="2" font-family="Arial, sans-serif" font-size="14" fill="#374151">= 25 fylte ruter</text>

    <rect x="170" y="-12" width="18" height="18" fill="#e2e8f0" stroke="#94a3b8" stroke-width="1" rx="3"/>
    <text x="195" y="2" font-family="Arial, sans-serif" font-size="14" fill="#374151">= 75 tomme ruter</text>
  </g>
</svg>