<svg xmlns="http://www.w3.org/2000/svg" viewBox="0 0 480 360" width="480" height="360" font-family="system-ui, -apple-system, sans-serif">
<defs><marker id="ah-scoo-0" viewBox="0 0 10 10" refX="9" refY="5" markerWidth="7" markerHeight="7" orient="auto-start-reverse"><path d="M 0 0 L 10 5 L 0 10 z" fill="#6b7280"/></marker><marker id="ah-scoo-1" viewBox="0 0 10 10" refX="9" refY="5" markerWidth="7" markerHeight="7" orient="auto-start-reverse"><path d="M 0 0 L 10 5 L 0 10 z" fill="#dc2626"/></marker><marker id="ah-scoo-2" viewBox="0 0 10 10" refX="9" refY="5" markerWidth="7" markerHeight="7" orient="auto-start-reverse"><path d="M 0 0 L 10 5 L 0 10 z" fill="#2563eb"/></marker><marker id="ah-scoo-3" viewBox="0 0 10 10" refX="9" refY="5" markerWidth="7" markerHeight="7" orient="auto-start-reverse"><path d="M 0 0 L 10 5 L 0 10 z" fill="#059669"/></marker></defs>
<line x1="40.0" y1="250.0" x2="440.0" y2="250.0" stroke="#6b7280" stroke-width="2.2"/>
<line x1="50.0" y1="250.0" x2="40.0" y2="262.0" stroke="#6b7280" stroke-width="1.1"/>
<line x1="76.0" y1="250.0" x2="66.0" y2="262.0" stroke="#6b7280" stroke-width="1.1"/>
<line x1="102.0" y1="250.0" x2="92.0" y2="262.0" stroke="#6b7280" stroke-width="1.1"/>
<line x1="128.0" y1="250.0" x2="118.0" y2="262.0" stroke="#6b7280" stroke-width="1.1"/>
<line x1="154.0" y1="250.0" x2="144.0" y2="262.0" stroke="#6b7280" stroke-width="1.1"/>
<line x1="180.0" y1="250.0" x2="170.0" y2="262.0" stroke="#6b7280" stroke-width="1.1"/>
<line x1="206.0" y1="250.0" x2="196.0" y2="262.0" stroke="#6b7280" stroke-width="1.1"/>
<line x1="232.0" y1="250.0" x2="222.0" y2="262.0" stroke="#6b7280" stroke-width="1.1"/>
<line x1="258.0" y1="250.0" x2="248.0" y2="262.0" stroke="#6b7280" stroke-width="1.1"/>
<line x1="284.0" y1="250.0" x2="274.0" y2="262.0" stroke="#6b7280" stroke-width="1.1"/>
<line x1="310.0" y1="250.0" x2="300.0" y2="262.0" stroke="#6b7280" stroke-width="1.1"/>
<line x1="336.0" y1="250.0" x2="326.0" y2="262.0" stroke="#6b7280" stroke-width="1.1"/>
<line x1="362.0" y1="250.0" x2="352.0" y2="262.0" stroke="#6b7280" stroke-width="1.1"/>
<line x1="388.0" y1="250.0" x2="378.0" y2="262.0" stroke="#6b7280" stroke-width="1.1"/>
<line x1="414.0" y1="250.0" x2="404.0" y2="262.0" stroke="#6b7280" stroke-width="1.1"/>
<rect x="190" y="206" width="100" height="44" fill="none" stroke="#6b7280" stroke-width="2"/>
<text x="240.0" y="232.0" fill="#6b7280" font-size="12" text-anchor="middle">380 kg</text>
<line x1="240.0" y1="228.0" x2="240.0" y2="318.0" stroke="#dc2626" stroke-width="2.2" marker-end="url(#ah-scoo-1)"/>
<line x1="240.0" y1="228.0" x2="240.0" y2="128.0" stroke="#2563eb" stroke-width="2.2" marker-end="url(#ah-scoo-2)"/>
<line x1="240.0" y1="228.0" x2="145.0" y2="228.0" stroke="#059669" stroke-width="2.2" marker-end="url(#ah-scoo-3)"/>
<line x1="300.0" y1="190.0" x2="380.0" y2="190.0" stroke="#6b7280" stroke-width="2" marker-end="url(#ah-scoo-0)"/>
<text x="340.0" y="182.0" fill="#6b7280" font-size="12" text-anchor="middle">v = 15 m/s</text>
<text x="248.0" y="324.0" fill="#dc2626" font-size="13" text-anchor="start">G = mg</text>
<text x="248.0" y="124.0" fill="#2563eb" font-size="13" text-anchor="start">N</text>
<text x="140.0" y="218.0" fill="#059669" font-size="13" text-anchor="end">R = μN</text>
<text x="240.0" y="320.0" fill="#6b7280" font-size="11" text-anchor="middle">Snøscooter som bremser på is: N = mg, og friksjonen er den eneste vannrette kraften.</text>
</svg>
