<svg xmlns="http://www.w3.org/2000/svg" viewBox="0 0 600 400">
  <defs>
    <marker id="arrowBox" markerWidth="10" markerHeight="7" refX="9" refY="3.5" orient="auto">
      <polygon points="0 0, 10 3.5, 0 7" fill="#374151"/>
    </marker>
  </defs>

  <!-- Background -->
  <rect width="600" height="400" fill="#f8fafc"/>

  <!-- Title -->
  <text x="300" y="30" text-anchor="middle" font-family="system-ui, sans-serif" font-size="18" font-weight="600" fill="#1e293b">Sammenligning av boksplot</text>

  <!-- X-axis -->
  <line x1="80" y1="320" x2="560" y2="320" stroke="#374151" stroke-width="2" marker-end="url(#arrowBox)"/>

  <!-- Scale markers -->
  <g font-family="system-ui, sans-serif" font-size="10" fill="#6b7280">
    <line x1="100" y1="315" x2="100" y2="325" stroke="#374151"/>
    <text x="100" y="340" text-anchor="middle">0</text>

    <line x1="160" y1="315" x2="160" y2="325" stroke="#374151"/>
    <text x="160" y="340" text-anchor="middle">10</text>

    <line x1="220" y1="315" x2="220" y2="325" stroke="#374151"/>
    <text x="220" y="340" text-anchor="middle">20</text>

    <line x1="280" y1="315" x2="280" y2="325" stroke="#374151"/>
    <text x="280" y="340" text-anchor="middle">30</text>

    <line x1="340" y1="315" x2="340" y2="325" stroke="#374151"/>
    <text x="340" y="340" text-anchor="middle">40</text>

    <line x1="400" y1="315" x2="400" y2="325" stroke="#374151"/>
    <text x="400" y="340" text-anchor="middle">50</text>

    <line x1="460" y1="315" x2="460" y2="325" stroke="#374151"/>
    <text x="460" y="340" text-anchor="middle">60</text>

    <line x1="520" y1="315" x2="520" y2="325" stroke="#374151"/>
    <text x="520" y="340" text-anchor="middle">70</text>
  </g>

  <!-- Box plot A (Class A - narrower spread) -->
  <g transform="translate(0, 80)">
    <text x="50" y="45" text-anchor="end" font-family="system-ui, sans-serif" font-size="12" font-weight="500" fill="#3b82f6">Klasse A</text>

    <!-- Whisker left -->
    <line x1="190" y1="40" x2="250" y2="40" stroke="#3b82f6" stroke-width="2"/>
    <line x1="190" y1="30" x2="190" y2="50" stroke="#3b82f6" stroke-width="2"/>

    <!-- Box -->
    <rect x="250" y="20" width="140" height="40" fill="#dbeafe" stroke="#3b82f6" stroke-width="2"/>

    <!-- Median line -->
    <line x1="320" y1="20" x2="320" y2="60" stroke="#1d4ed8" stroke-width="3"/>

    <!-- Whisker right -->
    <line x1="390" y1="40" x2="450" y2="40" stroke="#3b82f6" stroke-width="2"/>
    <line x1="450" y1="30" x2="450" y2="50" stroke="#3b82f6" stroke-width="2"/>

    <!-- Labels -->
    <text x="190" y="70" text-anchor="middle" font-family="system-ui, sans-serif" font-size="9" fill="#6b7280">min=15</text>
    <text x="250" y="70" text-anchor="middle" font-family="system-ui, sans-serif" font-size="9" fill="#6b7280">Q1=25</text>
    <text x="320" y="12" text-anchor="middle" font-family="system-ui, sans-serif" font-size="9" fill="#1d4ed8">median=37</text>
    <text x="390" y="70" text-anchor="middle" font-family="system-ui, sans-serif" font-size="9" fill="#6b7280">Q3=48</text>
    <text x="450" y="70" text-anchor="middle" font-family="system-ui, sans-serif" font-size="9" fill="#6b7280">max=55</text>
  </g>

  <!-- Box plot B (Class B - wider spread, lower median) -->
  <g transform="translate(0, 180)">
    <text x="50" y="45" text-anchor="end" font-family="system-ui, sans-serif" font-size="12" font-weight="500" fill="#22c55e">Klasse B</text>

    <!-- Whisker left -->
    <line x1="130" y1="40" x2="200" y2="40" stroke="#22c55e" stroke-width="2"/>
    <line x1="130" y1="30" x2="130" y2="50" stroke="#22c55e" stroke-width="2"/>

    <!-- Box -->
    <rect x="200" y="20" width="180" height="40" fill="#dcfce7" stroke="#22c55e" stroke-width="2"/>

    <!-- Median line -->
    <line x1="280" y1="20" x2="280" y2="60" stroke="#16a34a" stroke-width="3"/>

    <!-- Whisker right -->
    <line x1="380" y1="40" x2="480" y2="40" stroke="#22c55e" stroke-width="2"/>
    <line x1="480" y1="30" x2="480" y2="50" stroke="#22c55e" stroke-width="2"/>

    <!-- Outlier -->
    <circle cx="520" cy="40" r="5" fill="none" stroke="#22c55e" stroke-width="2"/>

    <!-- Labels -->
    <text x="130" y="70" text-anchor="middle" font-family="system-ui, sans-serif" font-size="9" fill="#6b7280">min=5</text>
    <text x="200" y="70" text-anchor="middle" font-family="system-ui, sans-serif" font-size="9" fill="#6b7280">Q1=17</text>
    <text x="280" y="12" text-anchor="middle" font-family="system-ui, sans-serif" font-size="9" fill="#16a34a">median=30</text>
    <text x="380" y="70" text-anchor="middle" font-family="system-ui, sans-serif" font-size="9" fill="#6b7280">Q3=47</text>
    <text x="480" y="70" text-anchor="middle" font-family="system-ui, sans-serif" font-size="9" fill="#6b7280">max=63</text>
    <text x="520" y="70" text-anchor="middle" font-family="system-ui, sans-serif" font-size="8" fill="#22c55e">utligger</text>
  </g>

  <!-- Legend box -->
  <rect x="80" y="355" width="480" height="35" fill="white" stroke="#e2e8f0" rx="4"/>
  <text x="170" y="378" text-anchor="middle" font-family="system-ui, sans-serif" font-size="11" fill="#374151">Klasse A: hoyere median, mindre spredning</text>
  <text x="420" y="378" text-anchor="middle" font-family="system-ui, sans-serif" font-size="11" fill="#374151">Klasse B: lavere median, storre spredning</text>

  <!-- IQR annotation for Class A -->
  <path d="M 250 145 L 250 155 L 390 155 L 390 145" fill="none" stroke="#f59e0b" stroke-width="1.5"/>
  <text x="320" y="168" text-anchor="middle" font-family="system-ui, sans-serif" font-size="9" fill="#f59e0b">IQR = Q3 - Q1 = 23</text>
</svg>