<svg xmlns="http://www.w3.org/2000/svg" viewBox="0 0 550 400">
  <defs>
    <marker id="arrowHist" markerWidth="10" markerHeight="7" refX="9" refY="3.5" orient="auto">
      <polygon points="0 0, 10 3.5, 0 7" fill="#374151"/>
    </marker>
  </defs>

  <!-- Background -->
  <rect width="550" height="400" fill="#f8fafc"/>

  <!-- Title -->
  <text x="275" y="30" text-anchor="middle" font-family="system-ui, sans-serif" font-size="18" font-weight="600" fill="#1e293b">Histogram</text>
  <text x="275" y="50" text-anchor="middle" font-family="system-ui, sans-serif" font-size="13" fill="#6b7280">Frekvensfordeling av data</text>

  <!-- Axes -->
  <line x1="80" y1="320" x2="500" y2="320" stroke="#374151" stroke-width="2" marker-end="url(#arrowHist)"/>
  <line x1="80" y1="330" x2="80" y2="70" stroke="#374151" stroke-width="2" marker-end="url(#arrowHist)"/>

  <!-- Y-axis label -->
  <text x="40" y="195" text-anchor="middle" font-family="system-ui, sans-serif" font-size="12" fill="#374151" transform="rotate(-90, 40, 195)">Frekvens</text>

  <!-- X-axis label -->
  <text x="290" y="360" text-anchor="middle" font-family="system-ui, sans-serif" font-size="12" fill="#374151">Verdi (klasser)</text>

  <!-- Y-axis ticks -->
  <g font-family="system-ui, sans-serif" font-size="10" fill="#6b7280">
    <line x1="75" y1="300" x2="80" y2="300" stroke="#374151"/>
    <text x="70" y="304" text-anchor="end">2</text>

    <line x1="75" y1="260" x2="80" y2="260" stroke="#374151"/>
    <text x="70" y="264" text-anchor="end">4</text>

    <line x1="75" y1="220" x2="80" y2="220" stroke="#374151"/>
    <text x="70" y="224" text-anchor="end">6</text>

    <line x1="75" y1="180" x2="80" y2="180" stroke="#374151"/>
    <text x="70" y="184" text-anchor="end">8</text>

    <line x1="75" y1="140" x2="80" y2="140" stroke="#374151"/>
    <text x="70" y="144" text-anchor="end">10</text>

    <line x1="75" y1="100" x2="80" y2="100" stroke="#374151"/>
    <text x="70" y="104" text-anchor="end">12</text>
  </g>

  <!-- Histogram bars -->
  <!-- Bar 1: 0-10, freq=3 -->
  <rect x="95" y="280" width="55" height="40" fill="#3b82f6" stroke="#1d4ed8" stroke-width="1"/>
  <text x="122" y="275" text-anchor="middle" font-family="system-ui, sans-serif" font-size="10" fill="#374151">3</text>

  <!-- Bar 2: 10-20, freq=5 -->
  <rect x="150" y="240" width="55" height="80" fill="#3b82f6" stroke="#1d4ed8" stroke-width="1"/>
  <text x="177" y="235" text-anchor="middle" font-family="system-ui, sans-serif" font-size="10" fill="#374151">5</text>

  <!-- Bar 3: 20-30, freq=9 -->
  <rect x="205" y="160" width="55" height="160" fill="#3b82f6" stroke="#1d4ed8" stroke-width="1"/>
  <text x="232" y="155" text-anchor="middle" font-family="system-ui, sans-serif" font-size="10" fill="#374151">9</text>

  <!-- Bar 4: 30-40, freq=12 (highest) -->
  <rect x="260" y="100" width="55" height="220" fill="#22c55e" stroke="#16a34a" stroke-width="1"/>
  <text x="287" y="95" text-anchor="middle" font-family="system-ui, sans-serif" font-size="10" fill="#374151">12</text>

  <!-- Bar 5: 40-50, freq=8 -->
  <rect x="315" y="180" width="55" height="140" fill="#3b82f6" stroke="#1d4ed8" stroke-width="1"/>
  <text x="342" y="175" text-anchor="middle" font-family="system-ui, sans-serif" font-size="10" fill="#374151">8</text>

  <!-- Bar 6: 50-60, freq=4 -->
  <rect x="370" y="260" width="55" height="60" fill="#3b82f6" stroke="#1d4ed8" stroke-width="1"/>
  <text x="397" y="255" text-anchor="middle" font-family="system-ui, sans-serif" font-size="10" fill="#374151">4</text>

  <!-- Bar 7: 60-70, freq=2 -->
  <rect x="425" y="300" width="55" height="20" fill="#3b82f6" stroke="#1d4ed8" stroke-width="1"/>
  <text x="452" y="295" text-anchor="middle" font-family="system-ui, sans-serif" font-size="10" fill="#374151">2</text>

  <!-- X-axis class labels -->
  <g font-family="system-ui, sans-serif" font-size="10" fill="#6b7280">
    <text x="122" y="335" text-anchor="middle">0-10</text>
    <text x="177" y="335" text-anchor="middle">10-20</text>
    <text x="232" y="335" text-anchor="middle">20-30</text>
    <text x="287" y="335" text-anchor="middle">30-40</text>
    <text x="342" y="335" text-anchor="middle">40-50</text>
    <text x="397" y="335" text-anchor="middle">50-60</text>
    <text x="452" y="335" text-anchor="middle">60-70</text>
  </g>

  <!-- Legend/Info box -->
  <rect x="400" y="60" width="130" height="60" fill="white" stroke="#e2e8f0" rx="4"/>
  <rect x="410" y="75" width="15" height="15" fill="#22c55e" stroke="#16a34a"/>
  <text x="435" y="87" font-family="system-ui, sans-serif" font-size="10" fill="#374151">Modus-klasse</text>
  <text x="410" y="108" font-family="system-ui, sans-serif" font-size="10" fill="#6b7280">n = 43 (totalt)</text>

  <!-- Modal class annotation -->
  <path d="M 287 90 L 287 75 L 320 75" fill="none" stroke="#22c55e" stroke-width="1.5"/>
  <text x="325" y="78" font-family="system-ui, sans-serif" font-size="9" fill="#22c55e">hoyest frekvens</text>
</svg>