<svg xmlns="http://www.w3.org/2000/svg" viewBox="0 0 1600 900" width="1600" height="900" role="img"><rect width="1600" height="900" fill="#0A1220"/><line x1="130.0" y1="666.2" x2="765.0" y2="666.2" stroke="#F2F6FA" stroke-width="3" opacity="1" stroke-linecap="round"/><line x1="765.0" y1="666.2" x2="752.9" y2="673.2" stroke="#F2F6FA" stroke-width="3" opacity="1" stroke-linecap="round"/><line x1="765.0" y1="666.2" x2="752.9" y2="659.2" stroke="#F2F6FA" stroke-width="3" opacity="1" stroke-linecap="round"/><line x1="177.5" y1="710.0" x2="177.5" y2="145.0" stroke="#F2F6FA" stroke-width="3" opacity="1" stroke-linecap="round"/><line x1="177.5" y1="145.0" x2="184.5" y2="157.1" stroke="#F2F6FA" stroke-width="3" opacity="1" stroke-linecap="round"/><line x1="177.5" y1="145.0" x2="170.5" y2="157.1" stroke="#F2F6FA" stroke-width="3" opacity="1" stroke-linecap="round"/><text x="427.5" y="702.2" font-family="system-ui, 'Segoe UI', Helvetica, Arial, sans-serif" font-size="26" fill="#F2F6FA" text-anchor="middle">1</text><text x="677.5" y="702.2" font-family="system-ui, 'Segoe UI', Helvetica, Arial, sans-serif" font-size="26" fill="#F2F6FA" text-anchor="middle">2</text><rect x="177.5" y="666.2" width="100.0" height="0.0" fill="#FFC23E" rx="0" opacity="0.4"/><rect x="177.5" y="666.2" width="100.0" height="0.0" fill="none" stroke="#FFC23E" stroke-width="1.5" rx="0" opacity="1"/><rect x="277.5" y="648.1" width="100.0" height="18.0" fill="#FFC23E" rx="0" opacity="0.4"/><rect x="277.5" y="648.1" width="100.0" height="18.0" fill="none" stroke="#FFC23E" stroke-width="1.5" rx="0" opacity="1"/><rect x="377.5" y="594.0" width="100.0" height="72.2" fill="#FFC23E" rx="0" opacity="0.4"/><rect x="377.5" y="594.0" width="100.0" height="72.2" fill="none" stroke="#FFC23E" stroke-width="1.5" rx="0" opacity="1"/><rect x="477.5" y="503.8" width="100.0" height="162.4" fill="#FFC23E" rx="0" opacity="0.4"/><rect x="477.5" y="503.8" width="100.0" height="162.4" fill="none" stroke="#FFC23E" stroke-width="1.5" rx="0" opacity="1"/><rect x="577.5" y="377.5" width="100.0" height="288.7" fill="#FFC23E" rx="0" opacity="0.4"/><rect x="577.5" y="377.5" width="100.0" height="288.7" fill="none" stroke="#FFC23E" stroke-width="1.5" rx="0" opacity="1"/><path d="M 177.5,666.2 L 178.8,666.2 L 180.1,666.2 L 181.4,666.1 L 182.8,666.1 L 184.1,666.1 L 185.4,666.1 L 186.7,666.0 L 188.0,666.0 L 189.3,665.9 L 190.6,665.9 L 191.9,665.8 L 193.2,665.7 L 194.6,665.6 L 195.9,665.6 L 197.2,665.5 L 198.5,665.4 L 199.8,665.3 L 201.1,665.2 L 202.4,665.0 L 203.8,664.9 L 205.1,664.8 L 206.4,664.7 L 207.7,664.5 L 209.0,664.4 L 210.3,664.2 L 211.6,664.1 L 212.9,663.9 L 214.2,663.7 L 215.6,663.6 L 216.9,663.4 L 218.2,663.2 L 219.5,663.0 L 220.8,662.8 L 222.1,662.6 L 223.4,662.4 L 224.8,662.1 L 226.1,661.9 L 227.4,661.7 L 228.7,661.4 L 230.0,661.2 L 231.3,660.9 L 232.6,660.7 L 233.9,660.4 L 235.2,660.2 L 236.6,659.9 L 237.9,659.6 L 239.2,659.3 L 240.5,659.0 L 241.8,658.7 L 243.1,658.4 L 244.4,658.1 L 245.8,657.8 L 247.1,657.4 L 248.4,657.1 L 249.7,656.8 L 251.0,656.4 L 252.3,656.1 L 253.6,655.7 L 254.9,655.4 L 256.2,655.0 L 257.6,654.6 L 258.9,654.2 L 260.2,653.8 L 261.5,653.4 L 262.8,653.0 L 264.1,652.6 L 265.4,652.2 L 266.8,651.8 L 268.1,651.4 L 269.4,650.9 L 270.7,650.5 L 272.0,650.1 L 273.3,649.6 L 274.6,649.2 L 275.9,648.7 L 277.2,648.2 L 278.6,647.7 L 279.9,647.3 L 281.2,646.8 L 282.5,646.3 L 283.8,645.8 L 285.1,645.3 L 286.4,644.8 L 287.8,644.2 L 289.1,643.7 L 290.4,643.2 L 291.7,642.6 L 293.0,642.1 L 294.3,641.6 L 295.6,641.0 L 296.9,640.4 L 298.2,639.9 L 299.6,639.3 L 300.9,638.7 L 302.2,638.1 L 303.5,637.5 L 304.8,636.9 L 306.1,636.3 L 307.4,635.7 L 308.8,635.1 L 310.1,634.5 L 311.4,633.8 L 312.7,633.2 L 314.0,632.6 L 315.3,631.9 L 316.6,631.2 L 317.9,630.6 L 319.2,629.9 L 320.6,629.2 L 321.9,628.6 L 323.2,627.9 L 324.5,627.2 L 325.8,626.5 L 327.1,625.8 L 328.4,625.1 L 329.8,624.3 L 331.1,623.6 L 332.4,622.9 L 333.7,622.2 L 335.0,621.4 L 336.3,620.7 L 337.6,619.9 L 338.9,619.1 L 340.2,618.4 L 341.6,617.6 L 342.9,616.8 L 344.2,616.0 L 345.5,615.2 L 346.8,614.4 L 348.1,613.6 L 349.4,612.8 L 350.8,612.0 L 352.1,611.2 L 353.4,610.4 L 354.7,609.5 L 356.0,608.7 L 357.3,607.8 L 358.6,607.0 L 359.9,606.1 L 361.2,605.3 L 362.6,604.4 L 363.9,603.5 L 365.2,602.6 L 366.5,601.7 L 367.8,600.8 L 369.1,599.9 L 370.4,599.0 L 371.8,598.1 L 373.1,597.2 L 374.4,596.2 L 375.7,595.3 L 377.0,594.4 L 378.3,593.4 L 379.6,592.5 L 380.9,591.5 L 382.2,590.5 L 383.6,589.6 L 384.9,588.6 L 386.2,587.6 L 387.5,586.6 L 388.8,585.6 L 390.1,584.6 L 391.4,583.6 L 392.8,582.6 L 394.1,581.6 L 395.4,580.5 L 396.7,579.5 L 398.0,578.4 L 399.3,577.4 L 400.6,576.3 L 401.9,575.3 L 403.2,574.2 L 404.6,573.1 L 405.9,572.1 L 407.2,571.0 L 408.5,569.9 L 409.8,568.8 L 411.1,567.7 L 412.4,566.6 L 413.8,565.5 L 415.1,564.3 L 416.4,563.2 L 417.7,562.1 L 419.0,560.9 L 420.3,559.8 L 421.6,558.6 L 422.9,557.5 L 424.2,556.3 L 425.6,555.1 L 426.9,554.0 L 428.2,552.8 L 429.5,551.6 L 430.8,550.4 L 432.1,549.2 L 433.4,548.0 L 434.8,546.8 L 436.1,545.5 L 437.4,544.3 L 438.7,543.1 L 440.0,541.8 L 441.3,540.6 L 442.6,539.3 L 443.9,538.1 L 445.2,536.8 L 446.6,535.6 L 447.9,534.3 L 449.2,533.0 L 450.5,531.7 L 451.8,530.4 L 453.1,529.1 L 454.4,527.8 L 455.8,526.5 L 457.1,525.2 L 458.4,523.8 L 459.7,522.5 L 461.0,521.2 L 462.3,519.8 L 463.6,518.5 L 464.9,517.1 L 466.2,515.7 L 467.6,514.4 L 468.9,513.0 L 470.2,511.6 L 471.5,510.2 L 472.8,508.8 L 474.1,507.4 L 475.4,506.0 L 476.8,504.6 L 478.1,503.2 L 479.4,501.8 L 480.7,500.3 L 482.0,498.9 L 483.3,497.4 L 484.6,496.0 L 485.9,494.5 L 487.2,493.1 L 488.6,491.6 L 489.9,490.1 L 491.2,488.6 L 492.5,487.1 L 493.8,485.6 L 495.1,484.1 L 496.4,482.6 L 497.7,481.1 L 499.1,479.6 L 500.4,478.1 L 501.7,476.5 L 503.0,475.0 L 504.3,473.5 L 505.6,471.9 L 506.9,470.4 L 508.2,468.8 L 509.6,467.2 L 510.9,465.6 L 512.2,464.1 L 513.5,462.5 L 514.8,460.9 L 516.1,459.3 L 517.4,457.7 L 518.8,456.1 L 520.1,454.4 L 521.4,452.8 L 522.7,451.2 L 524.0,449.5 L 525.3,447.9 L 526.6,446.3 L 527.9,444.6 L 529.2,442.9 L 530.6,441.3 L 531.9,439.6 L 533.2,437.9 L 534.5,436.2 L 535.8,434.5 L 537.1,432.8 L 538.4,431.1 L 539.8,429.4 L 541.1,427.7 L 542.4,426.0 L 543.7,424.2 L 545.0,422.5 L 546.3,420.8 L 547.6,419.0 L 548.9,417.2 L 550.2,415.5 L 551.6,413.7 L 552.9,411.9 L 554.2,410.2 L 555.5,408.4 L 556.8,406.6 L 558.1,404.8 L 559.4,403.0 L 560.8,401.2 L 562.1,399.3 L 563.4,397.5 L 564.7,395.7 L 566.0,393.8 L 567.3,392.0 L 568.6,390.2 L 569.9,388.3 L 571.2,386.4 L 572.6,384.6 L 573.9,382.7 L 575.2,380.8 L 576.5,378.9 L 577.8,377.0 L 579.1,375.1 L 580.4,373.2 L 581.8,371.3 L 583.1,369.4 L 584.4,367.5 L 585.7,365.6 L 587.0,363.6 L 588.3,361.7 L 589.6,359.7 L 590.9,357.8 L 592.2,355.8 L 593.6,353.8 L 594.9,351.9 L 596.2,349.9 L 597.5,347.9 L 598.8,345.9 L 600.1,343.9 L 601.4,341.9 L 602.8,339.9 L 604.1,337.9 L 605.4,335.9 L 606.7,333.8 L 608.0,331.8 L 609.3,329.7 L 610.6,327.7 L 611.9,325.6 L 613.2,323.6 L 614.6,321.5 L 615.9,319.4 L 617.2,317.4 L 618.5,315.3 L 619.8,313.2 L 621.1,311.1 L 622.4,309.0 L 623.8,306.9 L 625.1,304.8 L 626.4,302.6 L 627.7,300.5 L 629.0,298.4 L 630.3,296.2 L 631.6,294.1 L 632.9,291.9 L 634.2,289.8 L 635.6,287.6 L 636.9,285.4 L 638.2,283.2 L 639.5,281.1 L 640.8,278.9 L 642.1,276.7 L 643.4,274.5 L 644.8,272.3 L 646.1,270.0 L 647.4,267.8 L 648.7,265.6 L 650.0,263.4 L 651.3,261.1 L 652.6,258.9 L 653.9,256.6 L 655.2,254.4 L 656.6,252.1 L 657.9,249.8 L 659.2,247.5 L 660.5,245.3 L 661.8,243.0 L 663.1,240.7 L 664.4,238.4 L 665.8,236.1 L 667.1,233.7 L 668.4,231.4 L 669.7,229.1 L 671.0,226.8 L 672.3,224.4 L 673.6,222.1 L 674.9,219.7 L 676.2,217.4 L 677.6,215.0 L 678.9,212.6 L 680.2,210.2 L 681.5,207.9 L 682.8,205.5 L 684.1,203.1 L 685.4,200.7 L 686.8,198.3 L 688.1,195.8 L 689.4,193.4 L 690.7,191.0 L 692.0,188.6 L 693.3,186.1 L 694.6,183.7 L 695.9,181.2 L 697.2,178.8 L 698.6,176.3 L 699.9,173.8 L 701.2,171.4 L 702.5,168.9" fill="none" stroke="#28E0E0" stroke-width="5" opacity="1" stroke-linejoin="round" stroke-linecap="round"/><text x="440.0" y="790.0" font-family="system-ui, 'Segoe UI', Helvetica, Arial, sans-serif" font-size="30" fill="#FF5FA8" text-anchor="middle" font-weight="bold">5 rektangler</text><line x1="850.0" y1="666.2" x2="1485.0" y2="666.2" stroke="#F2F6FA" stroke-width="3" opacity="1" stroke-linecap="round"/><line x1="1485.0" y1="666.2" x2="1472.9" y2="673.2" stroke="#F2F6FA" stroke-width="3" opacity="1" stroke-linecap="round"/><line x1="1485.0" y1="666.2" x2="1472.9" y2="659.2" stroke="#F2F6FA" stroke-width="3" opacity="1" stroke-linecap="round"/><line x1="897.5" y1="710.0" x2="897.5" y2="145.0" stroke="#F2F6FA" stroke-width="3" opacity="1" stroke-linecap="round"/><line x1="897.5" y1="145.0" x2="904.5" y2="157.1" stroke="#F2F6FA" stroke-width="3" opacity="1" stroke-linecap="round"/><line x1="897.5" y1="145.0" x2="890.5" y2="157.1" stroke="#F2F6FA" stroke-width="3" opacity="1" stroke-linecap="round"/><text x="1147.5" y="702.2" font-family="system-ui, 'Segoe UI', Helvetica, Arial, sans-serif" font-size="26" fill="#F2F6FA" text-anchor="middle">1</text><text x="1397.5" y="702.2" font-family="system-ui, 'Segoe UI', Helvetica, Arial, sans-serif" font-size="26" fill="#F2F6FA" text-anchor="middle">2</text><rect x="897.5" y="666.2" width="25.0" height="0.0" fill="#FFC23E" rx="0" opacity="0.4"/><rect x="897.5" y="666.2" width="25.0" height="0.0" fill="none" stroke="#FFC23E" stroke-width="1.5" rx="0" opacity="1"/><rect x="922.5" y="665.0" width="25.0" height="1.1" fill="#FFC23E" rx="0" opacity="0.4"/><rect x="922.5" y="665.0" width="25.0" height="1.1" fill="none" stroke="#FFC23E" stroke-width="1.5" rx="0" opacity="1"/><rect x="947.5" y="661.7" width="25.0" height="4.5" fill="#FFC23E" rx="0" opacity="0.4"/><rect x="947.5" y="661.7" width="25.0" height="4.5" fill="none" stroke="#FFC23E" stroke-width="1.5" rx="0" opacity="1"/><rect x="972.5" y="656.0" width="25.0" height="10.1" fill="#FFC23E" rx="0" opacity="0.4"/><rect x="972.5" y="656.0" width="25.0" height="10.1" fill="none" stroke="#FFC23E" stroke-width="1.5" rx="0" opacity="1"/><rect x="997.5" y="648.1" width="25.0" height="18.0" fill="#FFC23E" rx="0" opacity="0.4"/><rect x="997.5" y="648.1" width="25.0" height="18.0" fill="none" stroke="#FFC23E" stroke-width="1.5" rx="0" opacity="1"/><rect x="1022.5" y="638.0" width="25.0" height="28.2" fill="#FFC23E" rx="0" opacity="0.4"/><rect x="1022.5" y="638.0" width="25.0" height="28.2" fill="none" stroke="#FFC23E" stroke-width="1.5" rx="0" opacity="1"/><rect x="1047.5" y="625.6" width="25.0" height="40.6" fill="#FFC23E" rx="0" opacity="0.4"/><rect x="1047.5" y="625.6" width="25.0" height="40.6" fill="none" stroke="#FFC23E" stroke-width="1.5" rx="0" opacity="1"/><rect x="1072.5" y="610.9" width="25.0" height="55.3" fill="#FFC23E" rx="0" opacity="0.4"/><rect x="1072.5" y="610.9" width="25.0" height="55.3" fill="none" stroke="#FFC23E" stroke-width="1.5" rx="0" opacity="1"/><rect x="1097.5" y="594.0" width="25.0" height="72.2" fill="#FFC23E" rx="0" opacity="0.4"/><rect x="1097.5" y="594.0" width="25.0" height="72.2" fill="none" stroke="#FFC23E" stroke-width="1.5" rx="0" opacity="1"/><rect x="1122.5" y="574.8" width="25.0" height="91.3" fill="#FFC23E" rx="0" opacity="0.4"/><rect x="1122.5" y="574.8" width="25.0" height="91.3" fill="none" stroke="#FFC23E" stroke-width="1.5" rx="0" opacity="1"/><rect x="1147.5" y="553.4" width="25.0" height="112.8" fill="#FFC23E" rx="0" opacity="0.4"/><rect x="1147.5" y="553.4" width="25.0" height="112.8" fill="none" stroke="#FFC23E" stroke-width="1.5" rx="0" opacity="1"/><rect x="1172.5" y="529.7" width="25.0" height="136.4" fill="#FFC23E" rx="0" opacity="0.4"/><rect x="1172.5" y="529.7" width="25.0" height="136.4" fill="none" stroke="#FFC23E" stroke-width="1.5" rx="0" opacity="1"/><rect x="1197.5" y="503.8" width="25.0" height="162.4" fill="#FFC23E" rx="0" opacity="0.4"/><rect x="1197.5" y="503.8" width="25.0" height="162.4" fill="none" stroke="#FFC23E" stroke-width="1.5" rx="0" opacity="1"/><rect x="1222.5" y="475.6" width="25.0" height="190.6" fill="#FFC23E" rx="0" opacity="0.4"/><rect x="1222.5" y="475.6" width="25.0" height="190.6" fill="none" stroke="#FFC23E" stroke-width="1.5" rx="0" opacity="1"/><rect x="1247.5" y="445.1" width="25.0" height="221.0" fill="#FFC23E" rx="0" opacity="0.4"/><rect x="1247.5" y="445.1" width="25.0" height="221.0" fill="none" stroke="#FFC23E" stroke-width="1.5" rx="0" opacity="1"/><rect x="1272.5" y="412.4" width="25.0" height="253.7" fill="#FFC23E" rx="0" opacity="0.4"/><rect x="1272.5" y="412.4" width="25.0" height="253.7" fill="none" stroke="#FFC23E" stroke-width="1.5" rx="0" opacity="1"/><rect x="1297.5" y="377.5" width="25.0" height="288.7" fill="#FFC23E" rx="0" opacity="0.4"/><rect x="1297.5" y="377.5" width="25.0" height="288.7" fill="none" stroke="#FFC23E" stroke-width="1.5" rx="0" opacity="1"/><rect x="1322.5" y="340.3" width="25.0" height="325.9" fill="#FFC23E" rx="0" opacity="0.4"/><rect x="1322.5" y="340.3" width="25.0" height="325.9" fill="none" stroke="#FFC23E" stroke-width="1.5" rx="0" opacity="1"/><rect x="1347.5" y="300.8" width="25.0" height="365.4" fill="#FFC23E" rx="0" opacity="0.4"/><rect x="1347.5" y="300.8" width="25.0" height="365.4" fill="none" stroke="#FFC23E" stroke-width="1.5" rx="0" opacity="1"/><rect x="1372.5" y="259.1" width="25.0" height="407.1" fill="#FFC23E" rx="0" opacity="0.4"/><rect x="1372.5" y="259.1" width="25.0" height="407.1" fill="none" stroke="#FFC23E" stroke-width="1.5" rx="0" opacity="1"/><path d="M 897.5,666.2 L 898.8,666.2 L 900.1,666.2 L 901.4,666.1 L 902.8,666.1 L 904.1,666.1 L 905.4,666.1 L 906.7,666.0 L 908.0,666.0 L 909.3,665.9 L 910.6,665.9 L 911.9,665.8 L 913.2,665.7 L 914.6,665.6 L 915.9,665.6 L 917.2,665.5 L 918.5,665.4 L 919.8,665.3 L 921.1,665.2 L 922.4,665.0 L 923.8,664.9 L 925.1,664.8 L 926.4,664.7 L 927.7,664.5 L 929.0,664.4 L 930.3,664.2 L 931.6,664.1 L 932.9,663.9 L 934.2,663.7 L 935.6,663.6 L 936.9,663.4 L 938.2,663.2 L 939.5,663.0 L 940.8,662.8 L 942.1,662.6 L 943.4,662.4 L 944.8,662.1 L 946.1,661.9 L 947.4,661.7 L 948.7,661.4 L 950.0,661.2 L 951.3,660.9 L 952.6,660.7 L 953.9,660.4 L 955.2,660.2 L 956.6,659.9 L 957.9,659.6 L 959.2,659.3 L 960.5,659.0 L 961.8,658.7 L 963.1,658.4 L 964.4,658.1 L 965.8,657.8 L 967.1,657.4 L 968.4,657.1 L 969.7,656.8 L 971.0,656.4 L 972.3,656.1 L 973.6,655.7 L 974.9,655.4 L 976.2,655.0 L 977.6,654.6 L 978.9,654.2 L 980.2,653.8 L 981.5,653.4 L 982.8,653.0 L 984.1,652.6 L 985.4,652.2 L 986.8,651.8 L 988.1,651.4 L 989.4,650.9 L 990.7,650.5 L 992.0,650.1 L 993.3,649.6 L 994.6,649.2 L 995.9,648.7 L 997.2,648.2 L 998.6,647.7 L 999.9,647.3 L 1001.2,646.8 L 1002.5,646.3 L 1003.8,645.8 L 1005.1,645.3 L 1006.4,644.8 L 1007.8,644.2 L 1009.1,643.7 L 1010.4,643.2 L 1011.7,642.6 L 1013.0,642.1 L 1014.3,641.6 L 1015.6,641.0 L 1016.9,640.4 L 1018.2,639.9 L 1019.6,639.3 L 1020.9,638.7 L 1022.2,638.1 L 1023.5,637.5 L 1024.8,636.9 L 1026.1,636.3 L 1027.4,635.7 L 1028.8,635.1 L 1030.1,634.5 L 1031.4,633.8 L 1032.7,633.2 L 1034.0,632.6 L 1035.3,631.9 L 1036.6,631.2 L 1037.9,630.6 L 1039.2,629.9 L 1040.6,629.2 L 1041.9,628.6 L 1043.2,627.9 L 1044.5,627.2 L 1045.8,626.5 L 1047.1,625.8 L 1048.4,625.1 L 1049.8,624.3 L 1051.1,623.6 L 1052.4,622.9 L 1053.7,622.2 L 1055.0,621.4 L 1056.3,620.7 L 1057.6,619.9 L 1058.9,619.1 L 1060.2,618.4 L 1061.6,617.6 L 1062.9,616.8 L 1064.2,616.0 L 1065.5,615.2 L 1066.8,614.4 L 1068.1,613.6 L 1069.4,612.8 L 1070.8,612.0 L 1072.1,611.2 L 1073.4,610.4 L 1074.7,609.5 L 1076.0,608.7 L 1077.3,607.8 L 1078.6,607.0 L 1079.9,606.1 L 1081.2,605.3 L 1082.6,604.4 L 1083.9,603.5 L 1085.2,602.6 L 1086.5,601.7 L 1087.8,600.8 L 1089.1,599.9 L 1090.4,599.0 L 1091.8,598.1 L 1093.1,597.2 L 1094.4,596.2 L 1095.7,595.3 L 1097.0,594.4 L 1098.3,593.4 L 1099.6,592.5 L 1100.9,591.5 L 1102.2,590.5 L 1103.6,589.6 L 1104.9,588.6 L 1106.2,587.6 L 1107.5,586.6 L 1108.8,585.6 L 1110.1,584.6 L 1111.4,583.6 L 1112.8,582.6 L 1114.1,581.6 L 1115.4,580.5 L 1116.7,579.5 L 1118.0,578.4 L 1119.3,577.4 L 1120.6,576.3 L 1121.9,575.3 L 1123.2,574.2 L 1124.6,573.1 L 1125.9,572.1 L 1127.2,571.0 L 1128.5,569.9 L 1129.8,568.8 L 1131.1,567.7 L 1132.4,566.6 L 1133.8,565.5 L 1135.1,564.3 L 1136.4,563.2 L 1137.7,562.1 L 1139.0,560.9 L 1140.3,559.8 L 1141.6,558.6 L 1142.9,557.5 L 1144.2,556.3 L 1145.6,555.1 L 1146.9,554.0 L 1148.2,552.8 L 1149.5,551.6 L 1150.8,550.4 L 1152.1,549.2 L 1153.4,548.0 L 1154.8,546.8 L 1156.1,545.5 L 1157.4,544.3 L 1158.7,543.1 L 1160.0,541.8 L 1161.3,540.6 L 1162.6,539.3 L 1163.9,538.1 L 1165.2,536.8 L 1166.6,535.6 L 1167.9,534.3 L 1169.2,533.0 L 1170.5,531.7 L 1171.8,530.4 L 1173.1,529.1 L 1174.4,527.8 L 1175.8,526.5 L 1177.1,525.2 L 1178.4,523.8 L 1179.7,522.5 L 1181.0,521.2 L 1182.3,519.8 L 1183.6,518.5 L 1184.9,517.1 L 1186.2,515.7 L 1187.6,514.4 L 1188.9,513.0 L 1190.2,511.6 L 1191.5,510.2 L 1192.8,508.8 L 1194.1,507.4 L 1195.4,506.0 L 1196.8,504.6 L 1198.1,503.2 L 1199.4,501.8 L 1200.7,500.3 L 1202.0,498.9 L 1203.3,497.4 L 1204.6,496.0 L 1205.9,494.5 L 1207.2,493.1 L 1208.6,491.6 L 1209.9,490.1 L 1211.2,488.6 L 1212.5,487.1 L 1213.8,485.6 L 1215.1,484.1 L 1216.4,482.6 L 1217.8,481.1 L 1219.1,479.6 L 1220.4,478.1 L 1221.7,476.5 L 1223.0,475.0 L 1224.3,473.5 L 1225.6,471.9 L 1226.9,470.4 L 1228.2,468.8 L 1229.6,467.2 L 1230.9,465.6 L 1232.2,464.1 L 1233.5,462.5 L 1234.8,460.9 L 1236.1,459.3 L 1237.4,457.7 L 1238.8,456.1 L 1240.1,454.4 L 1241.4,452.8 L 1242.7,451.2 L 1244.0,449.5 L 1245.3,447.9 L 1246.6,446.3 L 1247.9,444.6 L 1249.2,442.9 L 1250.6,441.3 L 1251.9,439.6 L 1253.2,437.9 L 1254.5,436.2 L 1255.8,434.5 L 1257.1,432.8 L 1258.4,431.1 L 1259.8,429.4 L 1261.1,427.7 L 1262.4,426.0 L 1263.7,424.2 L 1265.0,422.5 L 1266.3,420.8 L 1267.6,419.0 L 1268.9,417.2 L 1270.2,415.5 L 1271.6,413.7 L 1272.9,411.9 L 1274.2,410.2 L 1275.5,408.4 L 1276.8,406.6 L 1278.1,404.8 L 1279.4,403.0 L 1280.8,401.2 L 1282.1,399.3 L 1283.4,397.5 L 1284.7,395.7 L 1286.0,393.8 L 1287.3,392.0 L 1288.6,390.2 L 1289.9,388.3 L 1291.2,386.4 L 1292.6,384.6 L 1293.9,382.7 L 1295.2,380.8 L 1296.5,378.9 L 1297.8,377.0 L 1299.1,375.1 L 1300.4,373.2 L 1301.8,371.3 L 1303.1,369.4 L 1304.4,367.5 L 1305.7,365.6 L 1307.0,363.6 L 1308.3,361.7 L 1309.6,359.7 L 1310.9,357.8 L 1312.2,355.8 L 1313.6,353.8 L 1314.9,351.9 L 1316.2,349.9 L 1317.5,347.9 L 1318.8,345.9 L 1320.1,343.9 L 1321.4,341.9 L 1322.8,339.9 L 1324.1,337.9 L 1325.4,335.9 L 1326.7,333.8 L 1328.0,331.8 L 1329.3,329.7 L 1330.6,327.7 L 1331.9,325.6 L 1333.2,323.6 L 1334.6,321.5 L 1335.9,319.4 L 1337.2,317.4 L 1338.5,315.3 L 1339.8,313.2 L 1341.1,311.1 L 1342.4,309.0 L 1343.8,306.9 L 1345.1,304.8 L 1346.4,302.6 L 1347.7,300.5 L 1349.0,298.4 L 1350.3,296.2 L 1351.6,294.1 L 1352.9,291.9 L 1354.2,289.8 L 1355.6,287.6 L 1356.9,285.4 L 1358.2,283.2 L 1359.5,281.1 L 1360.8,278.9 L 1362.1,276.7 L 1363.4,274.5 L 1364.8,272.3 L 1366.1,270.0 L 1367.4,267.8 L 1368.7,265.6 L 1370.0,263.4 L 1371.3,261.1 L 1372.6,258.9 L 1373.9,256.6 L 1375.2,254.4 L 1376.6,252.1 L 1377.9,249.8 L 1379.2,247.5 L 1380.5,245.3 L 1381.8,243.0 L 1383.1,240.7 L 1384.4,238.4 L 1385.8,236.1 L 1387.1,233.7 L 1388.4,231.4 L 1389.7,229.1 L 1391.0,226.8 L 1392.3,224.4 L 1393.6,222.1 L 1394.9,219.7 L 1396.2,217.4 L 1397.6,215.0 L 1398.9,212.6 L 1400.2,210.2 L 1401.5,207.9 L 1402.8,205.5 L 1404.1,203.1 L 1405.4,200.7 L 1406.8,198.3 L 1408.1,195.8 L 1409.4,193.4 L 1410.7,191.0 L 1412.0,188.6 L 1413.3,186.1 L 1414.6,183.7 L 1415.9,181.2 L 1417.2,178.8 L 1418.6,176.3 L 1419.9,173.8 L 1421.2,171.4 L 1422.5,168.9" fill="none" stroke="#28E0E0" stroke-width="5" opacity="1" stroke-linejoin="round" stroke-linecap="round"/><text x="1160.0" y="790.0" font-family="system-ui, 'Segoe UI', Helvetica, Arial, sans-serif" font-size="30" fill="#FF5FA8" text-anchor="middle" font-weight="bold">20 rektangler</text><line x1="755.0" y1="430.0" x2="850.0" y2="430.0" stroke="#FF5FA8" stroke-width="5" opacity="1" stroke-linecap="round"/><line x1="850.0" y1="430.0" x2="837.9" y2="437.0" stroke="#FF5FA8" stroke-width="5" opacity="1" stroke-linecap="round"/><line x1="850.0" y1="430.0" x2="837.9" y2="423.0" stroke="#FF5FA8" stroke-width="5" opacity="1" stroke-linecap="round"/><text x="800.0" y="90.0" font-family="system-ui, 'Segoe UI', Helvetica, Arial, sans-serif" font-size="36" fill="#FF5FA8" text-anchor="middle" font-weight="bold">n → ∞: arealet blir nøyaktig 8/3</text></svg>