<svg xmlns="http://www.w3.org/2000/svg" viewBox="0 0 520 380">
  <!-- Background -->
  <rect width="520" height="380" fill="#f8fafc" rx="8"/>

  <!-- Title -->
  <text x="260" y="28" text-anchor="middle" font-family="system-ui, sans-serif" font-size="18" font-weight="bold" fill="#1e293b">Rentesrente - Sparing over tid</text>
  <text x="260" y="48" text-anchor="middle" font-family="system-ui, sans-serif" font-size="12" fill="#64748b">10 000 kr med 5% arlig rente i 5 ar</text>

  <!-- Graph area -->
  <g transform="translate(60, 70)">
    <!-- Grid lines -->
    <line x1="0" y1="0" x2="400" y2="0" stroke="#e2e8f0" stroke-width="1"/>
    <line x1="0" y1="40" x2="400" y2="40" stroke="#e2e8f0" stroke-width="1"/>
    <line x1="0" y1="80" x2="400" y2="80" stroke="#e2e8f0" stroke-width="1"/>
    <line x1="0" y1="120" x2="400" y2="120" stroke="#e2e8f0" stroke-width="1"/>
    <line x1="0" y1="160" x2="400" y2="160" stroke="#e2e8f0" stroke-width="1"/>

    <!-- Y-axis -->
    <line x1="0" y1="0" x2="0" y2="160" stroke="#94a3b8" stroke-width="2"/>
    <text x="-10" y="5" text-anchor="end" font-family="system-ui, sans-serif" font-size="10" fill="#64748b">13000</text>
    <text x="-10" y="45" text-anchor="end" font-family="system-ui, sans-serif" font-size="10" fill="#64748b">12250</text>
    <text x="-10" y="85" text-anchor="end" font-family="system-ui, sans-serif" font-size="10" fill="#64748b">11500</text>
    <text x="-10" y="125" text-anchor="end" font-family="system-ui, sans-serif" font-size="10" fill="#64748b">10750</text>
    <text x="-10" y="165" text-anchor="end" font-family="system-ui, sans-serif" font-size="10" fill="#64748b">10000</text>

    <!-- X-axis -->
    <line x1="0" y1="160" x2="400" y2="160" stroke="#94a3b8" stroke-width="2"/>

    <!-- Year labels -->
    <text x="0" y="180" text-anchor="middle" font-family="system-ui, sans-serif" font-size="11" fill="#64748b">Start</text>
    <text x="80" y="180" text-anchor="middle" font-family="system-ui, sans-serif" font-size="11" fill="#64748b">Ar 1</text>
    <text x="160" y="180" text-anchor="middle" font-family="system-ui, sans-serif" font-size="11" fill="#64748b">Ar 2</text>
    <text x="240" y="180" text-anchor="middle" font-family="system-ui, sans-serif" font-size="11" fill="#64748b">Ar 3</text>
    <text x="320" y="180" text-anchor="middle" font-family="system-ui, sans-serif" font-size="11" fill="#64748b">Ar 4</text>
    <text x="400" y="180" text-anchor="middle" font-family="system-ui, sans-serif" font-size="11" fill="#64748b">Ar 5</text>

    <!-- Simple interest line (linear) - dashed -->
    <polyline points="0,160 80,133 160,107 240,80 320,53 400,27" fill="none" stroke="#94a3b8" stroke-width="2" stroke-dasharray="5,5"/>

    <!-- Compound interest curve (exponential) -->
    <polyline points="0,160 80,133 160,104 240,73 320,40 400,4" fill="none" stroke="#22c55e" stroke-width="3"/>

    <!-- Data points with values -->
    <circle cx="0" cy="160" r="6" fill="#3b82f6"/>
    <circle cx="80" cy="133" r="6" fill="#3b82f6"/>
    <circle cx="160" cy="104" r="6" fill="#3b82f6"/>
    <circle cx="240" cy="73" r="6" fill="#3b82f6"/>
    <circle cx="320" cy="40" r="6" fill="#3b82f6"/>
    <circle cx="400" cy="4" r="6" fill="#22c55e"/>

    <!-- Value labels -->
    <text x="0" y="152" text-anchor="middle" font-family="system-ui, sans-serif" font-size="9" fill="#1e293b">10 000</text>
    <text x="80" y="125" text-anchor="middle" font-family="system-ui, sans-serif" font-size="9" fill="#1e293b">10 500</text>
    <text x="160" y="96" text-anchor="middle" font-family="system-ui, sans-serif" font-size="9" fill="#1e293b">11 025</text>
    <text x="240" y="65" text-anchor="middle" font-family="system-ui, sans-serif" font-size="9" fill="#1e293b">11 576</text>
    <text x="320" y="32" text-anchor="middle" font-family="system-ui, sans-serif" font-size="9" fill="#1e293b">12 155</text>
    <text x="400" y="-4" text-anchor="middle" font-family="system-ui, sans-serif" font-size="10" font-weight="bold" fill="#22c55e">12 763</text>
  </g>

  <!-- Legend -->
  <g transform="translate(100, 275)">
    <line x1="0" y1="0" x2="30" y2="0" stroke="#22c55e" stroke-width="3"/>
    <text x="40" y="4" font-family="system-ui, sans-serif" font-size="12" fill="#1e293b">Rentesrente (eksponentiell vekst)</text>

    <line x1="0" y1="25" x2="30" y2="25" stroke="#94a3b8" stroke-width="2" stroke-dasharray="5,5"/>
    <text x="40" y="29" font-family="system-ui, sans-serif" font-size="12" fill="#1e293b">Enkel rente (linjaer vekst)</text>
  </g>

  <!-- Formula box -->
  <rect x="30" y="310" width="220" height="55" rx="8" fill="white" stroke="#e2e8f0" stroke-width="2"/>
  <text x="140" y="332" text-anchor="middle" font-family="system-ui, sans-serif" font-size="12" font-weight="bold" fill="#1e293b">Formel for rentesrente</text>
  <text x="140" y="352" text-anchor="middle" font-family="monospace" font-size="13" fill="#3b82f6">K = K_0 x (1 + r)^n</text>

  <!-- Result box -->
  <rect x="270" y="310" width="220" height="55" rx="8" fill="#f0fdf4" stroke="#22c55e" stroke-width="2"/>
  <text x="380" y="332" text-anchor="middle" font-family="system-ui, sans-serif" font-size="12" font-weight="bold" fill="#1e293b">Etter 5 ar</text>
  <text x="380" y="352" text-anchor="middle" font-family="monospace" font-size="12" fill="#22c55e">10000 x 1,05^5 = 12 763 kr</text>
</svg>