<svg xmlns="http://www.w3.org/2000/svg" viewBox="0 0 580 400" width="580" height="400">
  <defs>
    <marker id="arrowhead8" markerWidth="10" markerHeight="7" refX="9" refY="3.5" orient="auto">
      <polygon points="0 0, 10 3.5, 0 7" fill="#64748b"/>
    </marker>
    <linearGradient id="normGradient" x1="0%" y1="0%" x2="0%" y2="100%">
      <stop offset="0%" style="stop-color:#3b82f6;stop-opacity:0.4"/>
      <stop offset="100%" style="stop-color:#3b82f6;stop-opacity:0.1"/>
    </linearGradient>
  </defs>

  <!-- Bakgrunn -->
  <rect width="580" height="400" fill="#fafafa"/>

  <!-- Tittel -->
  <text x="290" y="32" text-anchor="middle" font-family="Arial, sans-serif" font-size="20" font-weight="bold" fill="#1e293b">Kontinuerlig Sannsynlighetsfordeling</text>

  <!-- Koordinatsystem -->
  <line x1="50" y1="300" x2="430" y2="300" stroke="#64748b" stroke-width="2" marker-end="url(#arrowhead8)"/>
  <line x1="50" y1="300" x2="50" y2="60" stroke="#64748b" stroke-width="2" marker-end="url(#arrowhead8)"/>

  <!-- Aksetiketter -->
  <text x="430" y="325" text-anchor="middle" font-family="Arial, sans-serif" font-size="14" fill="#64748b">x</text>
  <text x="30" y="65" text-anchor="middle" font-family="Arial, sans-serif" font-size="14" fill="#64748b">f(x)</text>

  <!-- Areal under kurven (mellom a og b) -->
  <path d="M 160,300 L 160,185 Q 180,130 210,105 Q 240,95 260,95 Q 290,100 320,130 L 320,300 Z" fill="url(#normGradient)" stroke="none"/>

  <!-- Normalfordeling kurve (klokkekurve) -->
  <path d="M 60,298 Q 100,295 140,270 Q 180,200 210,130 Q 240,90 260,85 Q 290,90 320,130 Q 360,210 400,280 Q 420,295 440,298" fill="none" stroke="#3b82f6" stroke-width="3"/>

  <!-- f(x) etikett -->
  <text x="275" y="75" font-family="Arial, sans-serif" font-size="13" font-weight="bold" fill="#3b82f6">f(x)</text>

  <!-- Grensemarkorer -->
  <line x1="160" y1="300" x2="160" y2="185" stroke="#22c55e" stroke-width="2" stroke-dasharray="5,3"/>
  <line x1="320" y1="300" x2="320" y2="130" stroke="#22c55e" stroke-width="2" stroke-dasharray="5,3"/>

  <!-- x-verdier -->
  <text x="160" y="318" text-anchor="middle" font-family="Arial, sans-serif" font-size="13" fill="#22c55e" font-weight="bold">a</text>
  <text x="320" y="318" text-anchor="middle" font-family="Arial, sans-serif" font-size="13" fill="#22c55e" font-weight="bold">b</text>

  <!-- Forventningsverdi markering -->
  <line x1="260" y1="300" x2="260" y2="85" stroke="#ef4444" stroke-width="1.5" stroke-dasharray="4,3"/>
  <text x="260" y="318" text-anchor="middle" font-family="Arial, sans-serif" font-size="12" fill="#ef4444">mu</text>

  <!-- Sannsynlighet etikett -->
  <text x="240" y="200" text-anchor="middle" font-family="Arial, sans-serif" font-size="13" font-weight="bold" fill="#3b82f6">P(a &lt; X &lt; b)</text>

  <!-- Forklaringsboks -->
  <rect x="450" y="55" width="120" height="170" rx="8" fill="white" stroke="#3b82f6" stroke-width="2"/>
  <text x="510" y="78" text-anchor="middle" font-family="Arial, sans-serif" font-size="12" font-weight="bold" fill="#3b82f6">Egenskaper</text>
  <line x1="460" y1="88" x2="560" y2="88" stroke="#e2e8f0" stroke-width="1"/>

  <text x="510" y="108" text-anchor="middle" font-family="Arial, sans-serif" font-size="10" fill="#1e293b">f(x) &gt;= 0 for alle x</text>
  <text x="510" y="130" text-anchor="middle" font-family="Arial, sans-serif" font-size="10" fill="#1e293b">Totalt areal = 1</text>

  <line x1="460" y1="145" x2="560" y2="145" stroke="#e2e8f0" stroke-width="1"/>
  <text x="510" y="163" text-anchor="middle" font-family="Arial, sans-serif" font-size="10" fill="#64748b">Sannsynlighet:</text>
  <text x="510" y="180" text-anchor="middle" font-family="Arial, sans-serif" font-size="10" fill="#3b82f6">P(a &lt; X &lt; b) =</text>
  <text x="510" y="195" text-anchor="middle" font-family="Arial, sans-serif" font-size="10" fill="#3b82f6">integral f(x)dx</text>
  <text x="510" y="210" text-anchor="middle" font-family="Arial, sans-serif" font-size="9" fill="#64748b">fra a til b</text>

  <!-- Standardavvik markering -->
  <line x1="190" y1="295" x2="330" y2="295" stroke="#f59e0b" stroke-width="2"/>
  <line x1="190" y1="290" x2="190" y2="300" stroke="#f59e0b" stroke-width="2"/>
  <line x1="330" y1="290" x2="330" y2="300" stroke="#f59e0b" stroke-width="2"/>
  <text x="260" y="340" text-anchor="middle" font-family="Arial, sans-serif" font-size="11" fill="#f59e0b">ca 68% innenfor 1 standardavvik</text>

  <!-- Formel boks -->
  <rect x="450" y="240" width="120" height="90" rx="6" fill="white" stroke="#22c55e" stroke-width="1.5"/>
  <text x="510" y="262" text-anchor="middle" font-family="Arial, sans-serif" font-size="11" font-weight="bold" fill="#22c55e">Normalfordeling</text>
  <text x="510" y="285" text-anchor="middle" font-family="Arial, sans-serif" font-size="10" fill="#1e293b">mu = forventning</text>
  <text x="510" y="303" text-anchor="middle" font-family="Arial, sans-serif" font-size="10" fill="#1e293b">sigma = std.avvik</text>
  <text x="510" y="323" text-anchor="middle" font-family="Arial, sans-serif" font-size="10" fill="#64748b">X ~ N(mu, sigma^2)</text>

  <!-- Bunnlinje -->
  <text x="240" y="380" text-anchor="middle" font-family="Arial, sans-serif" font-size="12" fill="#64748b">Tetthetsfunksjonen f(x) beskriver sannsynlighetsfordelingen</text>
</svg>