<svg xmlns="http://www.w3.org/2000/svg" viewBox="0 0 580 420">
  <!-- Bakgrunn -->
  <rect width="580" height="420" fill="#f8fafc"/>

  <!-- Tittel -->
  <text x="290" y="30" text-anchor="middle" font-family="Arial, sans-serif" font-size="20" font-weight="bold" fill="#1e293b">Utfallsrom og sannsynlighet</text>

  <!-- To terninger eksempel -->
  <g transform="translate(30, 55)">
    <text x="0" y="0" font-family="Arial, sans-serif" font-size="14" font-weight="bold" fill="#1e293b">Eksempel: Summen av to terninger</text>

    <!-- Utfallsrom-tabell -->
    <g transform="translate(0, 20)">
      <!-- Header rad -->
      <rect x="0" y="0" width="35" height="25" fill="#3b82f6"/>
      <text x="17" y="17" text-anchor="middle" font-family="Arial, sans-serif" font-size="11" fill="#fff">+</text>

      <!-- Terning 2 header -->
      <g fill="#dbeafe" stroke="#3b82f6" stroke-width="1">
        <rect x="35" y="0" width="30" height="25"/>
        <rect x="65" y="0" width="30" height="25"/>
        <rect x="95" y="0" width="30" height="25"/>
        <rect x="125" y="0" width="30" height="25"/>
        <rect x="155" y="0" width="30" height="25"/>
        <rect x="185" y="0" width="30" height="25"/>
      </g>
      <text x="50" y="17" text-anchor="middle" font-family="Arial, sans-serif" font-size="11" fill="#1e40af">1</text>
      <text x="80" y="17" text-anchor="middle" font-family="Arial, sans-serif" font-size="11" fill="#1e40af">2</text>
      <text x="110" y="17" text-anchor="middle" font-family="Arial, sans-serif" font-size="11" fill="#1e40af">3</text>
      <text x="140" y="17" text-anchor="middle" font-family="Arial, sans-serif" font-size="11" fill="#1e40af">4</text>
      <text x="170" y="17" text-anchor="middle" font-family="Arial, sans-serif" font-size="11" fill="#1e40af">5</text>
      <text x="200" y="17" text-anchor="middle" font-family="Arial, sans-serif" font-size="11" fill="#1e40af">6</text>

      <!-- Terning 1 header -->
      <g fill="#dbeafe" stroke="#3b82f6" stroke-width="1">
        <rect x="0" y="25" width="35" height="25"/>
        <rect x="0" y="50" width="35" height="25"/>
        <rect x="0" y="75" width="35" height="25"/>
        <rect x="0" y="100" width="35" height="25"/>
        <rect x="0" y="125" width="35" height="25"/>
        <rect x="0" y="150" width="35" height="25"/>
      </g>
      <text x="17" y="42" text-anchor="middle" font-family="Arial, sans-serif" font-size="11" fill="#1e40af">1</text>
      <text x="17" y="67" text-anchor="middle" font-family="Arial, sans-serif" font-size="11" fill="#1e40af">2</text>
      <text x="17" y="92" text-anchor="middle" font-family="Arial, sans-serif" font-size="11" fill="#1e40af">3</text>
      <text x="17" y="117" text-anchor="middle" font-family="Arial, sans-serif" font-size="11" fill="#1e40af">4</text>
      <text x="17" y="142" text-anchor="middle" font-family="Arial, sans-serif" font-size="11" fill="#1e40af">5</text>
      <text x="17" y="167" text-anchor="middle" font-family="Arial, sans-serif" font-size="11" fill="#1e40af">6</text>

      <!-- Utfallsrom-verdier -->
      <g fill="#f8fafc" stroke="#e2e8f0" stroke-width="1">
        <!-- Rad 1 -->
        <rect x="35" y="25" width="30" height="25"/>
        <rect x="65" y="25" width="30" height="25"/>
        <rect x="95" y="25" width="30" height="25"/>
        <rect x="125" y="25" width="30" height="25"/>
        <rect x="155" y="25" width="30" height="25"/>
        <rect x="185" y="25" width="30" height="25"/>
        <!-- Rad 2 -->
        <rect x="35" y="50" width="30" height="25"/>
        <rect x="65" y="50" width="30" height="25"/>
        <rect x="95" y="50" width="30" height="25"/>
        <rect x="125" y="50" width="30" height="25"/>
        <rect x="155" y="50" width="30" height="25"/>
        <rect x="185" y="50" width="30" height="25"/>
        <!-- Rad 3 -->
        <rect x="35" y="75" width="30" height="25"/>
        <rect x="65" y="75" width="30" height="25"/>
        <rect x="95" y="75" width="30" height="25"/>
        <rect x="125" y="75" width="30" height="25"/>
        <rect x="155" y="75" width="30" height="25"/>
        <rect x="185" y="75" width="30" height="25"/>
        <!-- Rad 4 -->
        <rect x="35" y="100" width="30" height="25"/>
        <rect x="65" y="100" width="30" height="25"/>
        <rect x="95" y="100" width="30" height="25"/>
        <rect x="125" y="100" width="30" height="25"/>
        <rect x="155" y="100" width="30" height="25"/>
        <rect x="185" y="100" width="30" height="25"/>
        <!-- Rad 5 -->
        <rect x="35" y="125" width="30" height="25"/>
        <rect x="65" y="125" width="30" height="25"/>
        <rect x="95" y="125" width="30" height="25"/>
        <rect x="125" y="125" width="30" height="25"/>
        <rect x="155" y="125" width="30" height="25"/>
        <rect x="185" y="125" width="30" height="25"/>
        <!-- Rad 6 -->
        <rect x="35" y="150" width="30" height="25"/>
        <rect x="65" y="150" width="30" height="25"/>
        <rect x="95" y="150" width="30" height="25"/>
        <rect x="125" y="150" width="30" height="25"/>
        <rect x="155" y="150" width="30" height="25"/>
        <rect x="185" y="150" width="30" height="25"/>
      </g>

      <!-- Summer - markert med 7 i gult -->
      <!-- Rad 1 -->
      <text x="50" y="42" text-anchor="middle" font-family="Arial, sans-serif" font-size="10" fill="#64748b">2</text>
      <text x="80" y="42" text-anchor="middle" font-family="Arial, sans-serif" font-size="10" fill="#64748b">3</text>
      <text x="110" y="42" text-anchor="middle" font-family="Arial, sans-serif" font-size="10" fill="#64748b">4</text>
      <text x="140" y="42" text-anchor="middle" font-family="Arial, sans-serif" font-size="10" fill="#64748b">5</text>
      <text x="170" y="42" text-anchor="middle" font-family="Arial, sans-serif" font-size="10" fill="#64748b">6</text>
      <rect x="185" y="25" width="30" height="25" fill="#fef3c7"/>
      <text x="200" y="42" text-anchor="middle" font-family="Arial, sans-serif" font-size="10" font-weight="bold" fill="#f59e0b">7</text>

      <!-- Rad 2 -->
      <text x="50" y="67" text-anchor="middle" font-family="Arial, sans-serif" font-size="10" fill="#64748b">3</text>
      <text x="80" y="67" text-anchor="middle" font-family="Arial, sans-serif" font-size="10" fill="#64748b">4</text>
      <text x="110" y="67" text-anchor="middle" font-family="Arial, sans-serif" font-size="10" fill="#64748b">5</text>
      <text x="140" y="67" text-anchor="middle" font-family="Arial, sans-serif" font-size="10" fill="#64748b">6</text>
      <rect x="155" y="50" width="30" height="25" fill="#fef3c7"/>
      <text x="170" y="67" text-anchor="middle" font-family="Arial, sans-serif" font-size="10" font-weight="bold" fill="#f59e0b">7</text>
      <text x="200" y="67" text-anchor="middle" font-family="Arial, sans-serif" font-size="10" fill="#64748b">8</text>

      <!-- Rad 3 -->
      <text x="50" y="92" text-anchor="middle" font-family="Arial, sans-serif" font-size="10" fill="#64748b">4</text>
      <text x="80" y="92" text-anchor="middle" font-family="Arial, sans-serif" font-size="10" fill="#64748b">5</text>
      <text x="110" y="92" text-anchor="middle" font-family="Arial, sans-serif" font-size="10" fill="#64748b">6</text>
      <rect x="125" y="75" width="30" height="25" fill="#fef3c7"/>
      <text x="140" y="92" text-anchor="middle" font-family="Arial, sans-serif" font-size="10" font-weight="bold" fill="#f59e0b">7</text>
      <text x="170" y="92" text-anchor="middle" font-family="Arial, sans-serif" font-size="10" fill="#64748b">8</text>
      <text x="200" y="92" text-anchor="middle" font-family="Arial, sans-serif" font-size="10" fill="#64748b">9</text>

      <!-- Rad 4 -->
      <text x="50" y="117" text-anchor="middle" font-family="Arial, sans-serif" font-size="10" fill="#64748b">5</text>
      <text x="80" y="117" text-anchor="middle" font-family="Arial, sans-serif" font-size="10" fill="#64748b">6</text>
      <rect x="95" y="100" width="30" height="25" fill="#fef3c7"/>
      <text x="110" y="117" text-anchor="middle" font-family="Arial, sans-serif" font-size="10" font-weight="bold" fill="#f59e0b">7</text>
      <text x="140" y="117" text-anchor="middle" font-family="Arial, sans-serif" font-size="10" fill="#64748b">8</text>
      <text x="170" y="117" text-anchor="middle" font-family="Arial, sans-serif" font-size="10" fill="#64748b">9</text>
      <text x="200" y="117" text-anchor="middle" font-family="Arial, sans-serif" font-size="10" fill="#64748b">10</text>

      <!-- Rad 5 -->
      <text x="50" y="142" text-anchor="middle" font-family="Arial, sans-serif" font-size="10" fill="#64748b">6</text>
      <rect x="65" y="125" width="30" height="25" fill="#fef3c7"/>
      <text x="80" y="142" text-anchor="middle" font-family="Arial, sans-serif" font-size="10" font-weight="bold" fill="#f59e0b">7</text>
      <text x="110" y="142" text-anchor="middle" font-family="Arial, sans-serif" font-size="10" fill="#64748b">8</text>
      <text x="140" y="142" text-anchor="middle" font-family="Arial, sans-serif" font-size="10" fill="#64748b">9</text>
      <text x="170" y="142" text-anchor="middle" font-family="Arial, sans-serif" font-size="10" fill="#64748b">10</text>
      <text x="200" y="142" text-anchor="middle" font-family="Arial, sans-serif" font-size="10" fill="#64748b">11</text>

      <!-- Rad 6 -->
      <rect x="35" y="150" width="30" height="25" fill="#fef3c7"/>
      <text x="50" y="167" text-anchor="middle" font-family="Arial, sans-serif" font-size="10" font-weight="bold" fill="#f59e0b">7</text>
      <text x="80" y="167" text-anchor="middle" font-family="Arial, sans-serif" font-size="10" fill="#64748b">8</text>
      <text x="110" y="167" text-anchor="middle" font-family="Arial, sans-serif" font-size="10" fill="#64748b">9</text>
      <text x="140" y="167" text-anchor="middle" font-family="Arial, sans-serif" font-size="10" fill="#64748b">10</text>
      <text x="170" y="167" text-anchor="middle" font-family="Arial, sans-serif" font-size="10" fill="#64748b">11</text>
      <text x="200" y="167" text-anchor="middle" font-family="Arial, sans-serif" font-size="10" fill="#64748b">12</text>
    </g>

    <!-- Forklaring ved siden -->
    <g transform="translate(240, 20)">
      <rect x="0" y="0" width="180" height="160" rx="8" fill="#fff" stroke="#e2e8f0" stroke-width="1.5"/>

      <text x="90" y="25" text-anchor="middle" font-family="Arial, sans-serif" font-size="12" font-weight="bold" fill="#1e293b">Utfallsrom</text>

      <text x="15" y="50" font-family="Arial, sans-serif" font-size="11" fill="#64748b">Antall utfall: 6 x 6 = 36</text>

      <text x="15" y="75" font-family="Arial, sans-serif" font-size="11" fill="#f59e0b">Gunstige for sum = 7:</text>
      <text x="15" y="92" font-family="Arial, sans-serif" font-size="10" fill="#64748b">(1,6) (2,5) (3,4)</text>
      <text x="15" y="107" font-family="Arial, sans-serif" font-size="10" fill="#64748b">(4,3) (5,2) (6,1)</text>
      <text x="15" y="122" font-family="Arial, sans-serif" font-size="11" fill="#f59e0b">= 6 utfall</text>

      <text x="15" y="147" font-family="Arial, sans-serif" font-size="12" font-weight="bold" fill="#22c55e">P(7) = 6/36 = 1/6</text>
    </g>
  </g>

  <!-- Formel -->
  <rect x="30" y="265" width="520" height="145" rx="10" fill="#fff" stroke="#e2e8f0" stroke-width="2"/>

  <g transform="translate(50, 285)">
    <text x="0" y="0" font-family="Arial, sans-serif" font-size="16" font-weight="bold" fill="#1e293b">Sannsynlighetsformel</text>

    <text x="0" y="35" font-family="Arial, sans-serif" font-size="14" fill="#3b82f6">P(A) =</text>
    <text x="55" y="25" font-family="Arial, sans-serif" font-size="13" fill="#22c55e">Antall gunstige utfall</text>
    <line x1="55" y1="32" x2="220" y2="32" stroke="#374151" stroke-width="1.5"/>
    <text x="55" y="50" font-family="Arial, sans-serif" font-size="13" fill="#f59e0b">Antall mulige utfall</text>

    <text x="260" y="35" font-family="Arial, sans-serif" font-size="14" fill="#64748b">der 0 &lt;= P(A) &lt;= 1</text>

    <text x="0" y="85" font-family="Arial, sans-serif" font-size="12" fill="#374151">P(A) = 0: Hendelsen kan ikke skje</text>
    <text x="0" y="105" font-family="Arial, sans-serif" font-size="12" fill="#374151">P(A) = 1: Hendelsen skjer alltid</text>
    <text x="260" y="85" font-family="Arial, sans-serif" font-size="12" fill="#374151">P(A) = 0.5: Like sannsynlig som usannsynlig</text>
    <text x="260" y="105" font-family="Arial, sans-serif" font-size="12" fill="#374151">P(ikke A) = 1 - P(A)</text>
  </g>
</svg>