<svg xmlns="http://www.w3.org/2000/svg" viewBox="0 0 600 380">
  <!-- Bakgrunn -->
  <rect width="600" height="380" fill="#f8fafc"/>

  <!-- Tittel -->
  <text x="300" y="30" text-anchor="middle" font-family="Arial, sans-serif" font-size="20" font-weight="bold" fill="#1e293b">Boksplot (fem-tallsoversikt)</text>

  <!-- Tallinje -->
  <g transform="translate(50, 80)">
    <!-- Hovedakse -->
    <line x1="0" y1="100" x2="500" y2="100" stroke="#374151" stroke-width="2"/>

    <!-- Merker pa tallinjen -->
    <g stroke="#374151" stroke-width="1.5">
      <line x1="0" y1="95" x2="0" y2="105"/>
      <line x1="100" y1="95" x2="100" y2="105"/>
      <line x1="200" y1="95" x2="200" y2="105"/>
      <line x1="300" y1="95" x2="300" y2="105"/>
      <line x1="400" y1="95" x2="400" y2="105"/>
      <line x1="500" y1="95" x2="500" y2="105"/>
    </g>

    <!-- Tallverdier -->
    <text x="0" y="125" text-anchor="middle" font-family="Arial, sans-serif" font-size="12" fill="#374151">0</text>
    <text x="100" y="125" text-anchor="middle" font-family="Arial, sans-serif" font-size="12" fill="#374151">10</text>
    <text x="200" y="125" text-anchor="middle" font-family="Arial, sans-serif" font-size="12" fill="#374151">20</text>
    <text x="300" y="125" text-anchor="middle" font-family="Arial, sans-serif" font-size="12" fill="#374151">30</text>
    <text x="400" y="125" text-anchor="middle" font-family="Arial, sans-serif" font-size="12" fill="#374151">40</text>
    <text x="500" y="125" text-anchor="middle" font-family="Arial, sans-serif" font-size="12" fill="#374151">50</text>

    <!-- BOKSPLOT -->
    <!-- Minimum (whisker) -->
    <line x1="60" y1="60" x2="150" y2="60" stroke="#3b82f6" stroke-width="2"/>
    <line x1="60" y1="50" x2="60" y2="70" stroke="#3b82f6" stroke-width="3"/>

    <!-- Boks (Q1 til Q3) -->
    <rect x="150" y="40" width="180" height="40" fill="#bfdbfe" stroke="#3b82f6" stroke-width="3"/>

    <!-- Median (Q2) -->
    <line x1="250" y1="40" x2="250" y2="80" stroke="#ef4444" stroke-width="4"/>

    <!-- Maximum (whisker) -->
    <line x1="330" y1="60" x2="420" y2="60" stroke="#3b82f6" stroke-width="2"/>
    <line x1="420" y1="50" x2="420" y2="70" stroke="#3b82f6" stroke-width="3"/>

    <!-- Etiketter -->
    <text x="60" y="35" text-anchor="middle" font-family="Arial, sans-serif" font-size="11" fill="#3b82f6">Min</text>
    <text x="60" y="20" text-anchor="middle" font-family="Arial, sans-serif" font-size="11" font-weight="bold" fill="#3b82f6">6</text>

    <text x="150" y="20" text-anchor="middle" font-family="Arial, sans-serif" font-size="11" fill="#22c55e">Q1</text>
    <text x="150" y="5" text-anchor="middle" font-family="Arial, sans-serif" font-size="11" font-weight="bold" fill="#22c55e">15</text>

    <text x="250" y="20" text-anchor="middle" font-family="Arial, sans-serif" font-size="11" fill="#ef4444">Median</text>
    <text x="250" y="5" text-anchor="middle" font-family="Arial, sans-serif" font-size="11" font-weight="bold" fill="#ef4444">25</text>

    <text x="330" y="20" text-anchor="middle" font-family="Arial, sans-serif" font-size="11" fill="#f59e0b">Q3</text>
    <text x="330" y="5" text-anchor="middle" font-family="Arial, sans-serif" font-size="11" font-weight="bold" fill="#f59e0b">33</text>

    <text x="420" y="35" text-anchor="middle" font-family="Arial, sans-serif" font-size="11" fill="#3b82f6">Maks</text>
    <text x="420" y="20" text-anchor="middle" font-family="Arial, sans-serif" font-size="11" font-weight="bold" fill="#3b82f6">42</text>

    <!-- Variasjonsbredde -->
    <line x1="60" y1="150" x2="420" y2="150" stroke="#64748b" stroke-width="1.5" stroke-dasharray="4,2"/>
    <line x1="60" y1="145" x2="60" y2="155" stroke="#64748b" stroke-width="1.5"/>
    <line x1="420" y1="145" x2="420" y2="155" stroke="#64748b" stroke-width="1.5"/>
    <text x="240" y="170" text-anchor="middle" font-family="Arial, sans-serif" font-size="11" fill="#64748b">Variasjonsbredde = Maks - Min = 42 - 6 = 36</text>

    <!-- Kvartilbredde -->
    <line x1="150" y1="90" x2="330" y2="90" stroke="#64748b" stroke-width="1.5"/>
    <text x="240" y="105" text-anchor="middle" font-family="Arial, sans-serif" font-size="10" fill="#64748b">Kvartilbredde = Q3 - Q1 = 33 - 15 = 18</text>
  </g>

  <!-- Forklaringsboks -->
  <rect x="30" y="260" width="540" height="110" rx="10" fill="#fff" stroke="#e2e8f0" stroke-width="2"/>

  <g transform="translate(50, 280)">
    <text x="0" y="0" font-family="Arial, sans-serif" font-size="14" font-weight="bold" fill="#1e293b">Fem-tallsoversikten:</text>

    <circle cx="10" cy="25" r="5" fill="#3b82f6"/>
    <text x="25" y="30" font-family="Arial, sans-serif" font-size="12" fill="#374151">Minimum - laveste verdi</text>

    <circle cx="200" cy="25" r="5" fill="#22c55e"/>
    <text x="215" y="30" font-family="Arial, sans-serif" font-size="12" fill="#374151">Q1 - nedre kvartil (25%)</text>

    <circle cx="380" cy="25" r="5" fill="#ef4444"/>
    <text x="395" y="30" font-family="Arial, sans-serif" font-size="12" fill="#374151">Median (50%)</text>

    <circle cx="10" cy="55" r="5" fill="#f59e0b"/>
    <text x="25" y="60" font-family="Arial, sans-serif" font-size="12" fill="#374151">Q3 - ovre kvartil (75%)</text>

    <circle cx="200" cy="55" r="5" fill="#3b82f6"/>
    <text x="215" y="60" font-family="Arial, sans-serif" font-size="12" fill="#374151">Maksimum - hoyeste verdi</text>

    <text x="0" y="85" font-family="Arial, sans-serif" font-size="11" fill="#64748b">Boksen inneholder 50% av dataene (fra Q1 til Q3). Medianen deler datasettet i to like deler.</text>
  </g>
</svg>