<svg xmlns="http://www.w3.org/2000/svg" viewBox="0 0 480 360" role="img" aria-label="Snitt gjennom omraadet V mellom paraboloiden z=r kvadrert og planet z=1">
  <title>Snitt av omraadet V (rz-planet)</title>
  <path d="M 90.00,110.00 L 390.00,110.00 L 390.00,110.00 L 382.50,129.50 L 375.00,148.00 L 367.50,165.50 L 360.00,182.00 L 352.50,197.50 L 345.00,212.00 L 337.50,225.50 L 330.00,238.00 L 322.50,249.50 L 315.00,260.00 L 307.50,269.50 L 300.00,278.00 L 292.50,285.50 L 285.00,292.00 L 277.50,297.50 L 270.00,302.00 L 262.50,305.50 L 255.00,308.00 L 247.50,309.50 L 240.00,310.00 L 232.50,309.50 L 225.00,308.00 L 217.50,305.50 L 210.00,302.00 L 202.50,297.50 L 195.00,292.00 L 187.50,285.50 L 180.00,278.00 L 172.50,269.50 L 165.00,260.00 L 157.50,249.50 L 150.00,238.00 L 142.50,225.50 L 135.00,212.00 L 127.50,197.50 L 120.00,182.00 L 112.50,165.50 L 105.00,148.00 L 97.50,129.50 L 90.00,110.00 Z" fill="#3b82f6" fill-opacity="0.15" stroke="none"/>
  <line x1="60" y1="310" x2="432" y2="310" stroke="#6b7280" stroke-width="1.5"/>
  <line x1="240" y1="322" x2="240" y2="38" stroke="#6b7280" stroke-width="1.5"/>
  <polygon points="432,310 424,306 424,314" fill="#6b7280"/>
  <polygon points="240,38 236,46 244,46" fill="#6b7280"/>
  <text x="436" y="314" font-family="serif" font-size="15" fill="#6b7280">r</text>
  <text x="228" y="36" font-family="serif" font-size="15" fill="#6b7280">z</text>
  <line x1="90" y1="110" x2="390" y2="110" stroke="#6b7280" stroke-width="1.4" stroke-dasharray="5 4"/>
  <text x="396" y="114" font-family="serif" font-size="13" fill="#374151">z = 1  (lokk T&#8322;)</text>
  <line x1="240" y1="110" x2="234" y2="110" stroke="#6b7280" stroke-width="1"/>
  <text x="214" y="114" font-family="serif" font-size="13" fill="#6b7280">1</text>
  <polyline points="90.00,110.00 97.50,129.50 105.00,148.00 112.50,165.50 120.00,182.00 127.50,197.50 135.00,212.00 142.50,225.50 150.00,238.00 157.50,249.50 165.00,260.00 172.50,269.50 180.00,278.00 187.50,285.50 195.00,292.00 202.50,297.50 210.00,302.00 217.50,305.50 225.00,308.00 232.50,309.50 240.00,310.00 247.50,309.50 255.00,308.00 262.50,305.50 270.00,302.00 277.50,297.50 285.00,292.00 292.50,285.50 300.00,278.00 307.50,269.50 315.00,260.00 322.50,249.50 330.00,238.00 337.50,225.50 345.00,212.00 352.50,197.50 360.00,182.00 367.50,165.50 375.00,148.00 382.50,129.50 390.00,110.00" fill="none" stroke="#1d4ed8" stroke-width="2.2"/>
  <text x="300" y="250" font-family="serif" font-size="13" fill="#1d4ed8">z = x&#178; + y&#178;  (T&#8321;)</text>
  <text x="228" y="175" font-family="serif" font-size="16" fill="#1e3a8a">V</text>
  <line x1="390" y1="310" x2="390" y2="316" stroke="#6b7280" stroke-width="1"/>
  <text x="384" y="330" font-family="serif" font-size="12" fill="#6b7280">1</text>
  <line x1="90" y1="310" x2="90" y2="316" stroke="#6b7280" stroke-width="1"/>
  <text x="82" y="330" font-family="serif" font-size="12" fill="#6b7280">-1</text>
</svg>