<svg xmlns="http://www.w3.org/2000/svg" viewBox="0 0 1600 900" width="1600" height="900" role="img"><rect width="1600" height="900" fill="#FFFFFF"/><text x="800.0" y="70.0" font-family="system-ui, 'Segoe UI', Helvetica, Arial, sans-serif" font-size="44" fill="#1A1A2E" text-anchor="middle" font-weight="bold">Forkorting og utviding</text><rect x="330.0" y="230.0" width="117.5" height="110.0" fill="#1F4E79" stroke="#1A1A2E" stroke-width="3" rx="0" opacity="1"/><rect x="447.5" y="230.0" width="117.5" height="110.0" fill="#1F4E79" stroke="#1A1A2E" stroke-width="3" rx="0" opacity="1"/><rect x="565.0" y="230.0" width="117.5" height="110.0" fill="#1F4E79" stroke="#1A1A2E" stroke-width="3" rx="0" opacity="1"/><rect x="682.5" y="230.0" width="117.5" height="110.0" fill="#1F4E79" stroke="#1A1A2E" stroke-width="3" rx="0" opacity="1"/><rect x="800.0" y="230.0" width="117.5" height="110.0" fill="#1F4E79" stroke="#1A1A2E" stroke-width="3" rx="0" opacity="1"/><rect x="917.5" y="230.0" width="117.5" height="110.0" fill="#1F4E79" stroke="#1A1A2E" stroke-width="3" rx="0" opacity="1"/><rect x="1035.0" y="230.0" width="117.5" height="110.0" fill="#FFFFFF" stroke="#1A1A2E" stroke-width="3" rx="0" opacity="1"/><rect x="1152.5" y="230.0" width="117.5" height="110.0" fill="#FFFFFF" stroke="#1A1A2E" stroke-width="3" rx="0" opacity="1"/><text x="306.0" y="296.0" font-family="system-ui, 'Segoe UI', Helvetica, Arial, sans-serif" font-size="34" fill="#1A1A2E" text-anchor="end" font-weight="bold">6/8</text><rect x="330.0" y="540.0" width="235.0" height="110.0" fill="#E8762C" stroke="#1A1A2E" stroke-width="3" rx="0" opacity="1"/><rect x="565.0" y="540.0" width="235.0" height="110.0" fill="#E8762C" stroke="#1A1A2E" stroke-width="3" rx="0" opacity="1"/><rect x="800.0" y="540.0" width="235.0" height="110.0" fill="#E8762C" stroke="#1A1A2E" stroke-width="3" rx="0" opacity="1"/><rect x="1035.0" y="540.0" width="235.0" height="110.0" fill="#FFFFFF" stroke="#1A1A2E" stroke-width="3" rx="0" opacity="1"/><text x="306.0" y="606.0" font-family="system-ui, 'Segoe UI', Helvetica, Arial, sans-serif" font-size="34" fill="#1A1A2E" text-anchor="end" font-weight="bold">3/4</text><line x1="330.0" y1="348.0" x2="330.0" y2="532.0" stroke="#D8E0EA" stroke-width="2" stroke-dasharray="6 8" opacity="1" stroke-linecap="round"/><line x1="1035.0" y1="348.0" x2="1035.0" y2="532.0" stroke="#D8E0EA" stroke-width="2" stroke-dasharray="6 8" opacity="1" stroke-linecap="round"/><line x1="1330.0" y1="285.0" x2="1330.0" y2="595.0" stroke="#1F4E79" stroke-width="5" opacity="1" stroke-linecap="round"/><line x1="1330.0" y1="595.0" x2="1322.0" y2="581.1" stroke="#1F4E79" stroke-width="5" opacity="1" stroke-linecap="round"/><line x1="1330.0" y1="595.0" x2="1338.0" y2="581.1" stroke="#1F4E79" stroke-width="5" opacity="1" stroke-linecap="round"/><text x="1370.0" y="432.0" font-family="system-ui, 'Segoe UI', Helvetica, Arial, sans-serif" font-size="34" fill="#1F4E79" text-anchor="start" font-weight="bold">: 2</text><text x="1370.0" y="476.0" font-family="system-ui, 'Segoe UI', Helvetica, Arial, sans-serif" font-size="30" fill="#1F4E79" text-anchor="start" font-weight="bold">(forkorting)</text><line x1="110.0" y1="595.0" x2="110.0" y2="285.0" stroke="#E8762C" stroke-width="5" opacity="1" stroke-linecap="round"/><line x1="110.0" y1="285.0" x2="118.0" y2="298.9" stroke="#E8762C" stroke-width="5" opacity="1" stroke-linecap="round"/><line x1="110.0" y1="285.0" x2="102.0" y2="298.9" stroke="#E8762C" stroke-width="5" opacity="1" stroke-linecap="round"/><text x="150.0" y="432.0" font-family="system-ui, 'Segoe UI', Helvetica, Arial, sans-serif" font-size="34" fill="#E8762C" text-anchor="start" font-weight="bold">· 2</text><text x="150.0" y="476.0" font-family="system-ui, 'Segoe UI', Helvetica, Arial, sans-serif" font-size="30" fill="#E8762C" text-anchor="start" font-weight="bold">(utviding)</text><text x="800.0" y="790.0" font-family="system-ui, 'Segoe UI', Helvetica, Arial, sans-serif" font-size="36" fill="#1A1A2E" text-anchor="middle" font-weight="bold">Like lange fylte deler: 6/8 = 3/4</text></svg>