<svg xmlns="http://www.w3.org/2000/svg" viewBox="0 0 1600 900" width="1600" height="900" role="img"><rect width="1600" height="900" fill="#FFFFFF"/><text x="800.0" y="70.0" font-family="system-ui, 'Segoe UI', Helvetica, Arial, sans-serif" font-size="44" fill="#1A1A2E" text-anchor="middle" font-weight="bold">Minst én sekser på fire kast</text><rect x="505.0" y="165.0" width="110.0" height="110.0" fill="#FFFFFF" stroke="#1F4E79" stroke-width="4" rx="17.6" opacity="1"/><circle cx="531.4" cy="191.4" r="8.2" fill="#1F4E79" opacity="1"/><circle cx="588.6" cy="191.4" r="8.2" fill="#1F4E79" opacity="1"/><circle cx="531.4" cy="220.0" r="8.2" fill="#1F4E79" opacity="1"/><circle cx="588.6" cy="220.0" r="8.2" fill="#1F4E79" opacity="1"/><circle cx="531.4" cy="248.6" r="8.2" fill="#1F4E79" opacity="1"/><circle cx="588.6" cy="248.6" r="8.2" fill="#1F4E79" opacity="1"/><rect x="665.0" y="165.0" width="110.0" height="110.0" fill="#FFFFFF" stroke="#1F4E79" stroke-width="4" rx="17.6" opacity="1"/><circle cx="691.4" cy="191.4" r="8.2" fill="#1F4E79" opacity="1"/><circle cx="720.0" cy="220.0" r="8.2" fill="#1F4E79" opacity="1"/><circle cx="748.6" cy="248.6" r="8.2" fill="#1F4E79" opacity="1"/><rect x="825.0" y="165.0" width="110.0" height="110.0" fill="#FFFFFF" stroke="#1F4E79" stroke-width="4" rx="17.6" opacity="1"/><circle cx="851.4" cy="191.4" r="8.2" fill="#1F4E79" opacity="1"/><circle cx="908.6" cy="248.6" r="8.2" fill="#1F4E79" opacity="1"/><rect x="985.0" y="165.0" width="110.0" height="110.0" fill="#FFFFFF" stroke="#1F4E79" stroke-width="4" rx="17.6" opacity="1"/><circle cx="1011.4" cy="191.4" r="8.2" fill="#1F4E79" opacity="1"/><circle cx="1068.6" cy="191.4" r="8.2" fill="#1F4E79" opacity="1"/><circle cx="1040.0" cy="220.0" r="8.2" fill="#1F4E79" opacity="1"/><circle cx="1011.4" cy="248.6" r="8.2" fill="#1F4E79" opacity="1"/><circle cx="1068.6" cy="248.6" r="8.2" fill="#1F4E79" opacity="1"/><rect x="240.0" y="380.0" width="537.6" height="130.0" fill="#1F4E79" rx="0" opacity="0.35"/><rect x="777.6" y="380.0" width="582.4" height="130.0" fill="#E8762C" rx="0" opacity="1"/><rect x="240.0" y="380.0" width="1120.0" height="130.0" fill="none" stroke="#1A1A2E" stroke-width="4" rx="0" opacity="1"/><text x="800.0" y="352.0" font-family="system-ui, 'Segoe UI', Helvetica, Arial, sans-serif" font-size="32" fill="#1A1A2E" text-anchor="middle" font-weight="bold">alle muligheter = 1</text><text x="508.8" y="566.0" font-family="system-ui, 'Segoe UI', Helvetica, Arial, sans-serif" font-size="32" fill="#1F4E79" text-anchor="middle" font-weight="bold">ingen seksere: (5/6)⁴ ≈ 0,48</text><text x="1068.8" y="457.0" font-family="system-ui, 'Segoe UI', Helvetica, Arial, sans-serif" font-size="32" fill="#FFFFFF" text-anchor="middle" font-weight="bold">1 − 0,48 = 0,52</text><text x="1068.8" y="566.0" font-family="system-ui, 'Segoe UI', Helvetica, Arial, sans-serif" font-size="32" fill="#E8762C" text-anchor="middle" font-weight="bold">minst én sekser: 0,52</text><text x="800.0" y="730.0" font-family="system-ui, 'Segoe UI', Helvetica, Arial, sans-serif" font-size="36" fill="#1A1A2E" text-anchor="middle" font-weight="bold">det motsatte av «minst én» er «ingen»</text></svg>