<svg xmlns="http://www.w3.org/2000/svg" viewBox="0 0 300 100">
  <!-- SSS -->
  <polygon points="20,80 75,80 40,30" fill="none" stroke="#222" stroke-width="1.5"/>
  <line x1="28" y1="52" x2="33" y2="57" stroke="#222" stroke-width="1"/>
  <line x1="55" y1="52" x2="50" y2="57" stroke="#222" stroke-width="1"/>
  <line x1="45" y1="77" x2="45" y2="72" stroke="#222" stroke-width="1"/>
  <line x1="50" y1="77" x2="50" y2="72" stroke="#222" stroke-width="1"/>
  <text x="47" y="95" font-size="11" font-family="serif" text-anchor="middle">SSS</text>

  <!-- SAS -->
  <polygon points="110" y1="80" x2="165" y2="80" x2="130,30" fill="none" stroke="#222" stroke-width="1.5"/>
  <polygon points="110,80 165,80 130,30" fill="none" stroke="#222" stroke-width="1.5"/>
  <line x1="118" y1="52" x2="123" y2="57" stroke="#222" stroke-width="1"/>
  <line x1="135" y1="77" x2="135" y2="72" stroke="#222" stroke-width="1"/>
  <line x1="140" y1="77" x2="140" y2="72" stroke="#222" stroke-width="1"/>
  <path d="M 120 80 A 10 10 0 0 0 116 72" fill="none" stroke="#222" stroke-width="1"/>
  <text x="137" y="95" font-size="11" font-family="serif" text-anchor="middle">SAS</text>

  <!-- ASA -->
  <polygon points="200,80 255,80 220,30" fill="none" stroke="#222" stroke-width="1.5"/>
  <path d="M 210 80 A 10 10 0 0 0 206 72" fill="none" stroke="#222" stroke-width="1"/>
  <path d="M 245 80 A 10 10 0 0 1 249 72" fill="none" stroke="#222" stroke-width="1"/>
  <line x1="225" y1="77" x2="225" y2="72" stroke="#222" stroke-width="1"/>
  <line x1="230" y1="77" x2="230" y2="72" stroke="#222" stroke-width="1"/>
  <text x="227" y="95" font-size="11" font-family="serif" text-anchor="middle">ASA</text>
</svg>
