<svg xmlns="http://www.w3.org/2000/svg" viewBox="0 0 600 450">
  <defs>
    <marker id="poly-arrow" markerWidth="10" markerHeight="7" refX="9" refY="3.5" orient="auto">
      <polygon points="0 0, 10 3.5, 0 7" fill="#374151"/>
    </marker>
  </defs>

  <!-- Bakgrunn -->
  <rect width="600" height="450" fill="#fafafa"/>

  <!-- Tittel -->
  <text x="300" y="28" font-family="Georgia, serif" font-size="20" font-weight="bold" fill="#1f2937" text-anchor="middle">Tredjegradsfunksjon med egenskaper</text>

  <!-- Funksjon -->
  <text x="300" y="52" font-family="Georgia, serif" font-size="16" fill="#3b82f6" text-anchor="middle" font-style="italic">f(x) = x³ − 3x² − x + 3</text>

  <!-- Koordinatsystem -->
  <g transform="translate(80, 70)">
    <!-- Rutenett -->
    <g stroke="#e5e7eb" stroke-width="0.5">
      <line x1="0" y1="0" x2="0" y2="280"/>
      <line x1="50" y1="0" x2="50" y2="280"/>
      <line x1="100" y1="0" x2="100" y2="280"/>
      <line x1="150" y1="0" x2="150" y2="280"/>
      <line x1="200" y1="0" x2="200" y2="280"/>
      <line x1="250" y1="0" x2="250" y2="280"/>
      <line x1="300" y1="0" x2="300" y2="280"/>
      <line x1="350" y1="0" x2="350" y2="280"/>
      <line x1="400" y1="0" x2="400" y2="280"/>

      <line x1="0" y1="40" x2="400" y2="40"/>
      <line x1="0" y1="90" x2="400" y2="90"/>
      <line x1="0" y1="140" x2="400" y2="140"/>
      <line x1="0" y1="190" x2="400" y2="190"/>
      <line x1="0" y1="240" x2="400" y2="240"/>
    </g>

    <!-- Akser -->
    <line x1="0" y1="140" x2="420" y2="140" stroke="#374151" stroke-width="2" marker-end="url(#poly-arrow)"/>
    <line x1="100" y1="290" x2="100" y2="-10" stroke="#374151" stroke-width="2" marker-end="url(#poly-arrow)"/>
    <text x="425" y="145" font-family="Georgia, serif" font-size="14" fill="#374151" font-style="italic">x</text>
    <text x="105" y="-15" font-family="Georgia, serif" font-size="14" fill="#374151" font-style="italic">y</text>

    <!-- Aksetiketter -->
    <text x="47" y="155" font-family="Georgia, serif" font-size="10" fill="#6b7280">-1</text>
    <text x="147" y="155" font-family="Georgia, serif" font-size="10" fill="#6b7280">1</text>
    <text x="197" y="155" font-family="Georgia, serif" font-size="10" fill="#6b7280">2</text>
    <text x="247" y="155" font-family="Georgia, serif" font-size="10" fill="#6b7280">3</text>
    <text x="297" y="155" font-family="Georgia, serif" font-size="10" fill="#6b7280">4</text>

    <text x="105" y="95" font-family="Georgia, serif" font-size="10" fill="#6b7280">4</text>
    <text x="105" y="195" font-family="Georgia, serif" font-size="10" fill="#6b7280">-4</text>
    <text x="105" y="45" font-family="Georgia, serif" font-size="10" fill="#6b7280">8</text>

    <!-- Tredjegradskurve f(x) = x³ - 3x² - x + 3 -->
    <!-- Nullpunkter ved x = -1, 1, 3 -->
    <!-- Lokalt max ca x = -0.15, lokalt min ca x = 2.15 -->
    <path d="M 10 10
             Q 30 60 50 140
             Q 58 170 80 182
             Q 100 188 120 182
             Q 140 173 150 140
             Q 160 100 180 80
             Q 200 65 220 95
             Q 235 125 250 140
             Q 270 160 290 140
             Q 310 110 340 40
             Q 360 -10 390 -60"
          stroke="#3b82f6" stroke-width="3" fill="none"/>

    <!-- Nullpunkter -->
    <circle cx="50" cy="140" r="6" fill="#ef4444"/>
    <text x="35" y="165" font-family="Georgia, serif" font-size="11" fill="#ef4444" font-weight="bold">x = -1</text>

    <circle cx="150" cy="140" r="6" fill="#ef4444"/>
    <text x="140" y="165" font-family="Georgia, serif" font-size="11" fill="#ef4444" font-weight="bold">x = 1</text>

    <circle cx="250" cy="140" r="6" fill="#ef4444"/>
    <text x="240" y="165" font-family="Georgia, serif" font-size="11" fill="#ef4444" font-weight="bold">x = 3</text>

    <!-- Lokalt maksimum -->
    <circle cx="80" cy="182" r="5" fill="#22c55e"/>
    <text x="40" y="210" font-family="Georgia, serif" font-size="10" fill="#22c55e" font-weight="bold">Lok. maks</text>

    <!-- Lokalt minimum -->
    <circle cx="220" cy="95" r="5" fill="#22c55e"/>
    <text x="225" y="85" font-family="Georgia, serif" font-size="10" fill="#22c55e" font-weight="bold">Lok. min</text>

    <!-- Vendepunkt -->
    <circle cx="150" cy="140" r="4" fill="#8b5cf6" stroke="#8b5cf6" stroke-width="2"/>
    <text x="155" y="125" font-family="Georgia, serif" font-size="10" fill="#8b5cf6" font-weight="bold">Vendepunkt</text>

    <!-- y-skjæringspunkt -->
    <circle cx="100" cy="117" r="4" fill="#f59e0b"/>
    <text x="75" y="110" font-family="Georgia, serif" font-size="10" fill="#f59e0b" font-weight="bold">y = 3</text>
  </g>

  <!-- Egenskapsboks -->
  <rect x="40" y="365" width="520" height="75" fill="#eff6ff" stroke="#3b82f6" stroke-width="2" rx="8"/>
  <text x="300" y="388" font-family="Georgia, serif" font-size="14" font-weight="bold" fill="#1e40af" text-anchor="middle">Egenskaper ved tredjegradsfunksjoner</text>
  <text x="60" y="410" font-family="Georgia, serif" font-size="12" fill="#374151">
    <tspan fill="#ef4444" font-weight="bold">Nullpunkter:</tspan> Opptil 3 stk  |
    <tspan fill="#22c55e" font-weight="bold">Ekstremalpunkter:</tspan> Opptil 2 stk  |
    <tspan fill="#8b5cf6" font-weight="bold">Vendepunkt:</tspan> Alltid 1 stk
  </text>
  <text x="300" y="432" font-family="Georgia, serif" font-size="12" fill="#374151" text-anchor="middle" font-style="italic">
    Grenseadferd: f(x) → -∞ når x → -∞ og f(x) → +∞ når x → +∞ (positiv ledende koeffisient)
  </text>
</svg>